<?xml version="1.0" encoding="UTF-8" standalone="no"?>
<!DOCTYPE svg PUBLIC "-//W3C//DTD SVG 20010904//EN" "http://www.w3.org/TR/2001/REC-SVG-20010904/DTD/svg10.dtd">
<svg version="1.0" xmlns="http://www.w3.org/2000/svg" width="300.000000pt" height="322.000000pt" viewBox="0 0 300.000000 322.000000" preserveAspectRatio="xMidYMid meet">
<metadata>
Created by potrace 1.10, written by Peter Selinger 2001-2011
</metadata>
<g transform="translate(0.000000,322.000000) scale(0.100000,-0.100000)" fill="#000000" stroke="none">
<path d="M50 3216 c0 -3 5 -17 11 -33 6 -15 13 -45 16 -67 2 -21 11 -45 19 -53 22 -22 40 -63 48 -105 4 -21 11 -38 16 -38 6 0 10 -6 10 -13 0 -19 69 -89 80 -82 5 3 12 -1 17 -8 11 -20 63 -28 63 -11 0 8 -11 14 -25 14 -14 0 -25 5 -25 10 0 6 -12 10 -26 10 -19 0 -25 4 -20 15 3 9 0 15 -9 15 -8 0 -15 5 -15 10 0 6 -6 10 -14 10 -9 0 -12 8 -8 25 4 24 22 36 22 14 0 -12 25 -39 37 -39 5 0 15 -9 23 -20 12 -16 26 -20 72 -20 32 0 58 4 58 10 0 6 -17 10 -37 10 -28 0 -34 3 -23 10 11 7 2 10 -32 10 -36 0 -48 4 -48 15 0 8 -5 15 -11 15 -16 0 -50 41 -43 51 3 5 0 9 -5 9 -6 0 -11 -9 -11 -20 0 -11 -7 -20 -15 -20 -9 0 -15 9 -15 25 0 15 6 25 15 25 9 0 12 6 9 15 -8 20 1 19 21 -1 9 -9 19 -13 23 -10 3 4 0 11 -8 17 -13 8 -13 10 0 18 8 6 11 14 6 18 -5 4 -11 2 -13 -4 -3 -7 -11 -13 -19 -13 -9 0 -12 5 -9 10 3 6 1 10 -4 10 -6 0 -11 -9 -11 -20 0 -11 -7 -20 -15 -20 -8 0 -15 9 -15 19 0 10 -7 22 -16 25 -8 3 -12 10 -9 16 3 5 -1 10 -9 10 -12 0 -16 11 -16 45 0 25 -4 45 -10 45 -5 0 -10 11 -10 25 0 14 -4 25 -10 25 -5 0 -10 -2 -10 -4z"/>
<path d="M1127 3199 c-3 -11 -10 -18 -16 -14 -7 3 -11 -2 -11 -14 0 -16 6 -21 25 -21 20 0 25 -5 25 -25 0 -14 5 -25 10 -25 20 0 10 47 -12 58 -13 6 -17 11 -10 11 6 1 12 8 12 16 0 8 7 15 16 15 8 0 13 -4 9 -9 -3 -5 -1 -12 5 -16 5 -3 10 1 10 9 0 9 7 16 15 16 8 0 15 4 15 8 0 5 -20 9 -44 11 -37 1 -44 -1 -49 -20z"/>
<path d="M1970 3160 c0 -33 4 -60 10 -60 6 0 10 7 10 15 0 8 7 15 16 15 8 0 13 4 10 8 -2 4 0 14 5 22 8 13 10 13 18 0 6 -8 14 -11 18 -6 4 5 2 11 -4 13 -7 3 -13 9 -13 15 0 15 -31 37 -52 38 -15 0 -18 -9 -18 -60z"/>
<path d="M2117 3203 c-5 -13 -13 -23 -18 -23 -5 0 -9 -7 -9 -15 0 -8 5 -15 10 -15 6 0 10 -11 10 -25 0 -14 -4 -25 -10 -25 -5 0 -10 -12 -10 -26 0 -19 -4 -25 -15 -20 -11 4 -15 -2 -15 -25 0 -17 -7 -37 -15 -45 -13 -14 -15 -14 -15 0 0 25 32 100 47 113 8 6 12 16 8 22 -9 16 -25 13 -25 -4 0 -8 -4 -15 -10 -15 -5 0 -10 -11 -10 -25 0 -14 -4 -25 -10 -25 -5 0 -10 -9 -10 -20 0 -11 -7 -20 -15 -20 -8 0 -15 -7 -15 -15 0 -9 6 -12 15 -9 9 4 15 0 15 -10 0 -9 -7 -16 -15 -16 -11 0 -15 -12 -15 -45 0 -33 4 -45 15 -45 8 0 15 -7 15 -15 0 -8 -7 -15 -15 -15 -9 0 -15 -10 -15 -26 0 -16 5 -24 13 -21 6 2 11 10 9 17 -2 8 4 11 15 8 16 -4 18 1 15 34 -3 23 0 38 7 38 6 0 11 11 11 25 0 14 5 25 10 25 6 0 10 11 10 24 0 14 7 31 15 40 8 8 15 24 15 35 0 22 14 28 25 12 8 -14 -6 -91 -16 -85 -5 3 -9 -9 -9 -25 0 -17 -4 -31 -10 -31 -5 0 -10 -16 -10 -35 0 -24 -5 -35 -15 -35 -8 0 -15 -9 -15 -20 0 -11 -4 -20 -10 -20 -5 0 -10 -9 -10 -21 0 -11 -6 -27 -12 -34 -34 -37 -38 -47 -38 -80 0 -24 5 -35 14 -35 8 0 17 -8 19 -17 3 -10 3 1 0 25 -4 28 -2 42 6 42 6 0 11 7 11 16 0 8 5 12 10 9 6 -3 10 1 10 9 0 9 7 16 16 16 8 0 12 5 9 10 -3 6 1 10 9 10 13 0 16 12 16 58 0 40 3 53 10 42 7 -11 10 0 10 38 0 39 4 52 15 52 12 0 14 16 12 90 -1 64 -6 90 -14 90 -7 0 -13 7 -13 15 0 8 7 15 15 15 8 0 15 5 15 10 0 6 -6 10 -14 10 -8 0 -16 12 -18 28 -3 26 -4 26 -11 5z"/>
<path d="M2206 3204 c-4 -10 -4 -47 0 -82 6 -60 16 -71 27 -27 3 11 5 4 6 -17 1 -29 5 -38 19 -37 10 0 12 3 5 6 -7 2 -13 20 -13 38 0 20 -6 35 -15 39 -10 4 -13 14 -9 35 3 16 2 37 -3 46 -9 16 -11 16 -17 -1z"/>
<path d="M2347 3206 c-4 -9 -14 -12 -26 -9 -15 4 -21 1 -21 -11 0 -9 -7 -16 -16 -16 -8 0 -12 -4 -9 -10 3 -5 -1 -10 -9 -10 -9 0 -16 -4 -16 -10 0 -5 12 -10 26 -10 14 0 23 4 19 10 -3 6 1 10 9 10 9 0 16 6 16 13 0 8 16 11 55 9 43 -3 56 0 61 12 5 12 20 16 58 16 37 0 47 3 36 10 -22 14 -111 9 -117 -7 -7 -18 -43 -17 -43 2 0 19 -16 20 -23 1z"/>
<path d="M146 3129 c-7 -56 0 -92 11 -61 3 6 11 12 19 12 20 0 17 18 -3 22 -14 3 -17 12 -15 46 5 64 -4 50 -12 -19z"/>
<path d="M198 3163 c6 -2 12 -10 12 -16 0 -7 18 -48 40 -91 45 -89 47 -96 23 -96 -15 0 -16 -2 -3 -10 25 -16 30 -12 30 25 0 19 -4 35 -10 35 -5 0 -10 9 -10 19 0 10 -6 21 -14 24 -9 4 -12 14 -9 26 4 15 1 21 -11 21 -12 0 -16 9 -16 35 0 30 -3 35 -22 34 -13 0 -17 -3 -10 -6z"/>
<path d="M2510 3160 c0 -5 -16 -10 -35 -10 -19 0 -35 -5 -35 -11 0 -19 -28 -39 -54 -39 -23 0 -26 3 -20 25 5 19 2 25 -10 25 -9 0 -15 -6 -13 -12 1 -7 -8 -14 -20 -16 -27 -4 -32 -24 -5 -21 9 1 24 -1 32 -4 8 -3 22 -8 30 -10 8 -3 -14 -6 -50 -7 -57 0 -63 -2 -47 -14 13 -10 28 -11 55 -5 50 12 120 38 103 39 -24 0 9 30 34 30 28 0 80 39 53 40 -10 0 -18 -4 -18 -10z"/>
<path d="M2905 3160 c22 -5 7 -8 -53 -9 -67 -1 -81 -3 -71 -14 10 -10 29 -11 83 -5 38 5 75 13 81 18 6 5 21 7 33 3 13 -3 22 -1 22 6 0 7 -22 11 -62 10 -50 -1 -57 -3 -33 -9z"/>
<path d="M2720 3105 c0 -19 5 -25 21 -25 22 0 49 -22 49 -39 0 -6 6 -11 13 -11 8 0 7 -4 -3 -10 -12 -8 -9 -10 13 -10 23 0 27 -4 27 -27 0 -22 2 -25 10 -13 6 10 10 11 10 3 0 -7 7 -13 16 -13 8 0 12 -4 9 -10 -3 -5 2 -10 12 -10 20 0 26 -8 -84 104 -35 35 -53 61 -45 63 22 8 13 18 -18 20 -26 2 -30 -1 -30 -22z"/>
<path d="M1270 2995 l0 -105 -40 0 c-29 0 -40 4 -40 15 0 8 -4 15 -10 15 -6 0 -10 -35 -10 -85 0 -69 3 -85 15 -85 8 0 15 -4 15 -10 0 -5 16 -10 35 -10 l35 0 0 -130 0 -130 70 0 c40 0 70 4 70 10 0 6 -7 10 -15 10 -11 0 -15 11 -15 40 0 31 3 38 15 34 10 -4 15 0 15 11 0 11 -5 15 -15 11 -8 -3 -15 -1 -15 4 0 5 8 11 18 13 16 4 16 5 0 6 -15 1 -18 10 -18 51 0 35 4 49 13 48 6 -2 11 3 10 10 -2 8 10 12 37 12 22 0 40 5 40 10 0 6 33 10 80 10 47 0 80 -4 80 -10 0 -5 12 -10 28 -9 l27 1 -25 8 c-16 5 16 8 88 9 115 1 120 3 113 44 0 4 17 7 40 7 24 0 38 4 34 10 -3 6 1 10 9 10 12 0 16 10 15 43 0 31 -2 37 -8 22 -5 -11 -7 -23 -5 -27 6 -9 -51 -48 -69 -48 -9 0 -19 -4 -22 -10 -3 -5 -26 -10 -50 -10 -24 0 -45 -5 -47 -11 -2 -7 -61 -12 -172 -14 -164 -4 -168 -4 -202 -30 l-36 -27 6 -87 c3 -61 1 -91 -8 -103 -7 -10 -16 -15 -19 -11 -4 3 -7 -1 -7 -10 0 -10 -8 -17 -17 -17 -14 0 -15 2 -4 9 11 7 11 9 0 13 -15 5 -30 151 -18 170 13 21 -15 67 -52 84 -40 18 -54 46 -43 89 5 19 13 25 34 25 44 0 61 29 67 114 4 45 11 80 19 87 10 9 14 9 14 0 0 -6 7 -11 15 -11 12 0 15 -16 15 -83 0 -60 4 -89 16 -106 16 -22 21 -23 98 -17 220 14 320 28 405 55 19 6 37 8 42 6 4 -3 11 -1 14 5 5 8 11 7 21 -1 11 -9 14 -7 14 15 0 21 -5 26 -25 26 -14 0 -25 -4 -25 -10 0 -5 -16 -10 -35 -10 -26 0 -35 -4 -36 -17 0 -15 -2 -15 -9 2 -7 17 -9 17 -9 3 -1 -14 -10 -18 -46 -18 -25 0 -45 -4 -45 -10 0 -6 -35 -10 -85 -10 -50 0 -85 -4 -85 -10 0 -5 -8 -10 -17 -10 -15 0 -16 2 -3 10 11 7 6 10 -20 9 -29 0 -31 -2 -15 -9 14 -6 -5 -9 -57 -9 l-78 -1 0 115 0 115 -35 0 c-19 0 -35 -4 -35 -10 0 -5 -8 -10 -17 -10 -15 0 -16 2 -3 10 13 8 12 10 -2 10 -16 0 -18 -12 -18 -105z m575 -225 c15 -7 10 -9 -22 -9 -24 -1 -43 4 -43 9 0 12 37 12 65 0z"/>
<path d="M1995 3083 c-4 -13 -11 -23 -16 -23 -5 0 -9 -7 -9 -15 0 -8 5 -15 10 -15 6 0 10 6 10 14 0 8 5 16 11 18 6 2 9 13 6 23 -5 19 -5 19 -12 -2z"/>
<path d="M910 3064 c0 -8 -4 -12 -10 -9 -6 4 -10 -5 -10 -19 0 -14 -4 -26 -10 -26 -6 0 -10 -27 -10 -60 0 -38 4 -60 11 -60 8 0 10 12 6 36 -6 38 6 84 23 84 5 0 9 -10 7 -21 -1 -12 4 -24 11 -26 6 -3 12 2 12 11 0 9 5 16 10 16 6 0 10 5 10 10 0 6 -6 10 -13 10 -9 0 -12 11 -9 35 3 27 1 35 -12 35 -9 0 -16 -7 -16 -16z"/>
<path d="M2510 3070 c0 -5 16 -10 35 -10 19 0 35 5 35 10 0 6 -16 10 -35 10 -19 0 -35 -4 -35 -10z"/>
<path d="M590 2985 c0 -16 -6 -25 -15 -25 -8 0 -15 -4 -15 -9 0 -5 7 -11 15 -15 8 -3 15 -10 15 -17 0 -6 -7 -9 -15 -5 -10 3 -15 -1 -15 -12 0 -15 -2 -15 -10 -2 -8 12 -10 11 -10 -7 0 -18 -6 -23 -25 -23 -14 0 -25 -5 -25 -11 0 -21 -29 -39 -64 -39 -22 0 -35 -5 -33 -11 1 -6 -4 -14 -12 -17 -10 -3 -12 0 -8 12 4 10 1 16 -7 16 -8 0 -16 -9 -19 -20 -4 -16 0 -20 22 -20 15 0 31 4 37 8 5 5 28 14 52 21 24 7 46 19 49 27 3 8 11 14 17 14 7 0 23 11 36 25 24 25 73 34 85 15 3 -5 15 -10 25 -10 26 0 45 -36 30 -55 -6 -8 -10 -26 -7 -42 4 -27 4 -27 6 5 0 18 6 32 14 32 6 0 13 11 13 25 1 15 -3 25 -12 25 -8 0 -14 5 -14 10 0 6 -11 10 -25 10 -14 0 -25 5 -25 10 0 6 -9 10 -20 10 -11 0 -20 7 -20 15 0 8 -8 15 -17 15 -16 0 -16 1 -2 16 15 14 21 14 68 -2 39 -12 55 -14 64 -5 8 8 0 11 -32 11 -25 0 -40 4 -36 10 4 6 -5 10 -19 10 -16 0 -26 6 -26 15 0 8 -4 15 -10 15 -5 0 -10 -11 -10 -25z"/>
<path d="M2230 2965 c0 -25 5 -45 10 -45 6 0 10 20 10 45 0 25 -4 45 -10 45 -5 0 -10 -20 -10 -45z"/>
<path d="M750 2960 c0 -19 4 -28 13 -25 6 2 21 -2 32 -11 16 -12 20 -26 19 -72 0 -32 1 -41 3 -19 2 20 8 37 14 37 5 0 9 9 9 20 0 11 -4 20 -10 20 -5 0 -10 7 -10 15 0 8 -7 15 -16 15 -8 0 -12 5 -9 10 3 6 -1 10 -9 10 -9 0 -16 7 -16 15 0 8 -4 15 -10 15 -5 0 -10 -13 -10 -30z"/>
<path d="M2956 2982 c-12 -11 -6 -42 8 -42 8 0 16 -6 19 -12 2 -7 8 -9 13 -5 5 4 2 13 -6 18 -11 8 -12 12 -2 16 6 2 12 8 12 13 0 10 -37 20 -44 12z"/>
<path d="M2860 2902 c0 -26 4 -41 10 -37 13 8 13 45 0 65 -7 11 -10 3 -10 -28z"/>
<path d="M2910 2919 c0 -5 5 -7 10 -4 6 4 10 -5 10 -19 0 -14 5 -26 10 -26 6 0 10 -7 10 -15 0 -8 7 -15 15 -15 8 0 15 -4 15 -10 0 -5 5 -10 10 -10 14 0 12 27 -2 33 -10 4 -9 8 2 16 8 5 11 14 6 18 -5 4 -11 2 -13 -4 -8 -23 -31 -14 -42 17 -9 29 -31 42 -31 19z"/>
<path d="M453 2912 c-18 -2 -33 -7 -33 -13 0 -5 -15 -10 -32 -10 l-33 -1 30 -7 c17 -4 29 -12 28 -19 -2 -7 4 -12 12 -12 8 0 15 5 15 10 0 6 5 10 11 10 14 0 42 28 37 38 -2 4 -18 6 -35 4z"/>
<path d="M2180 2905 c0 -8 -4 -15 -10 -15 -5 0 -10 -19 -10 -41 0 -28 -6 -46 -17 -55 -17 -13 -17 -13 2 -15 11 -1 23 -1 28 0 4 0 7 -6 7 -14 0 -8 7 -15 16 -15 8 0 13 4 10 9 -3 5 1 11 9 15 17 6 20 26 4 26 -20 0 -39 29 -39 59 0 17 5 31 10 31 6 0 10 -4 10 -10 0 -5 16 -10 35 -10 32 0 35 3 35 28 -1 24 -2 25 -14 10 -16 -22 -56 -24 -56 -3 0 8 -4 15 -10 15 -5 0 -10 -7 -10 -15z"/>
<path d="M2276 2843 c-12 -12 -6 -43 9 -43 8 0 15 9 15 19 0 21 -13 34 -24 24z"/>
<path d="M750 2804 c0 -8 -4 -12 -10 -9 -6 3 -10 -5 -10 -19 0 -15 -7 -26 -17 -29 -16 -4 -17 -5 -1 -6 10 -1 24 13 34 34 19 40 34 45 35 13 0 -22 1 -22 9 -3 13 31 12 35 -15 35 -16 0 -25 -6 -25 -16z"/>
<path d="M871 2748 c1 -40 4 -62 6 -48 8 49 11 53 33 37 14 -10 33 -12 65 -7 25 4 47 5 50 2 12 -13 3 -32 -15 -32 -24 0 -25 -6 -6 -26 17 -16 30 -19 21 -3 -4 6 1 17 11 24 25 19 73 19 80 0 4 -8 12 -15 20 -15 20 0 17 -17 -3 -29 -16 -9 -16 -10 -2 -11 27 0 29 -36 5 -59 -27 -26 -34 -26 -55 -3 -9 9 -24 23 -33 31 -16 12 -18 11 -18 -3 0 -9 7 -16 16 -16 12 0 15 -7 12 -25 -5 -22 -2 -25 24 -25 17 0 27 -4 23 -10 -3 -5 -1 -10 4 -10 6 0 11 5 11 10 0 6 8 10 18 10 14 0 15 2 2 10 -12 8 -11 10 8 10 21 0 22 4 22 70 0 40 -4 70 -10 70 -5 0 -10 7 -10 15 0 11 -11 15 -41 15 -24 0 -38 4 -34 10 3 6 1 10 -4 10 -6 0 -11 -4 -11 -10 0 -5 -7 -10 -15 -10 -8 0 -15 5 -15 10 0 6 -27 10 -60 10 -33 0 -59 3 -59 8 6 36 -3 62 -21 62 -18 0 -20 -6 -19 -72z"/>
<path d="M2860 2799 c0 -21 22 -49 38 -49 6 0 12 -6 15 -12 2 -7 8 -10 12 -6 9 8 -18 38 -34 38 -6 0 -11 11 -11 25 0 14 -4 25 -10 25 -5 0 -10 -9 -10 -21z"/>
<path d="M1971 2745 c0 -38 2 -45 9 -28 5 12 5 34 0 50 -7 24 -8 21 -9 -22z"/>
<path d="M806 2772 c-5 -8 -2 -20 8 -31 25 -27 20 -49 -11 -54 -27 -4 -27 -4 3 -6 29 -1 32 2 36 34 3 23 0 35 -8 35 -7 0 -14 8 -16 18 -3 13 -5 14 -12 4z"/>
<path d="M2230 2715 c0 -24 -5 -35 -15 -35 -19 0 -21 -58 -2 -66 14 -5 20 -74 7 -74 -5 0 -13 -12 -18 -27 -6 -16 -11 -22 -11 -15 -1 10 -6 9 -18 -4 -13 -13 -14 -19 -5 -22 6 -2 12 -10 12 -18 0 -8 5 -14 10 -14 6 0 10 7 10 15 0 8 4 15 10 15 5 0 13 12 16 26 9 34 20 19 27 -36 3 -25 3 -37 0 -27 -7 25 -23 21 -23 -7 0 -17 7 -26 26 -30 15 -4 29 -5 32 -1 3 3 0 5 -6 5 -8 0 -12 23 -12 70 0 40 -4 70 -10 70 -5 0 -10 16 -10 35 0 19 5 35 10 35 6 0 10 16 10 35 0 24 5 35 15 35 8 0 15 5 15 10 0 6 -7 10 -15 10 -9 0 -15 9 -15 25 0 18 -5 25 -20 25 -16 0 -20 -7 -20 -35z"/>
<path d="M2836 2725 c4 -16 2 -25 -6 -25 -16 0 -40 -26 -40 -42 1 -9 5 -7 14 5 7 9 16 17 20 17 11 0 36 -27 36 -39 0 -6 5 -11 10 -11 14 0 12 27 -2 34 -10 5 -10 7 0 12 16 8 15 42 -2 60 -23 22 -37 17 -30 -11z"/>
<path d="M1523 2733 c20 -2 54 -2 75 0 20 2 3 4 -38 4 -41 0 -58 -2 -37 -4z"/>
<path d="M415 2685 c-22 -8 -52 -15 -67 -15 -16 0 -28 -4 -28 -10 0 -5 -8 -10 -17 -10 -15 0 -16 -2 -3 -10 21 -14 30 -12 30 5 0 11 12 15 45 15 25 0 45 5 45 10 0 6 58 10 155 10 154 0 155 0 156 -22 1 -19 2 -20 6 -4 3 10 1 22 -4 26 -4 5 -69 11 -143 14 -103 4 -145 2 -175 -9z"/>
<path d="M930 2690 c0 -5 7 -10 15 -10 8 0 15 -4 15 -10 0 -5 8 -10 17 -10 14 0 14 3 -5 20 -23 22 -42 26 -42 10z"/>
<path d="M2410 2680 c0 -11 7 -20 15 -20 8 0 15 9 15 20 0 11 -7 20 -15 20 -8 0 -15 -9 -15 -20z"/>
<path d="M2140 2661 c-7 -11 -17 -18 -22 -15 -4 3 -8 1 -8 -5 0 -19 17 -20 30 0 8 10 20 19 27 19 7 0 13 5 13 10 0 17 -25 11 -40 -9z"/>
<path d="M921 2626 c2 -36 5 -42 21 -38 10 2 18 8 18 13 0 5 11 9 25 9 14 0 25 5 25 10 0 6 -11 10 -25 10 -14 0 -25 -4 -25 -10 0 -5 -7 -10 -15 -10 -11 0 -13 8 -8 30 3 20 1 30 -6 30 -8 0 -11 -16 -10 -44z"/>
<path d="M540 2646 c0 -8 -6 -16 -12 -19 -7 -2 -11 -7 -8 -10 7 -8 28 -10 90 -8 44 1 51 4 37 12 -10 6 -35 8 -59 4 -35 -6 -40 -5 -35 9 3 8 2 18 -3 21 -6 4 -10 0 -10 -9z"/>
<path d="M2300 2647 c0 -7 11 -21 25 -31 20 -15 24 -26 22 -59 -3 -38 -27 -68 -27 -33 0 9 -4 16 -10 16 -6 0 -10 -31 -10 -72 0 -47 3 -69 10 -62 8 8 11 19 19 64 1 3 6 -2 11 -10 7 -12 12 -12 22 -2 9 9 9 12 -1 12 -10 0 -11 3 -2 13 6 8 8 17 4 20 -3 4 2 9 11 13 32 12 40 -12 18 -49 -17 -30 -18 -39 -8 -71 8 -25 17 -36 30 -36 16 0 17 3 8 12 -18 18 -16 118 3 118 10 0 15 11 15 35 0 24 -5 35 -15 35 -8 0 -15 5 -15 11 0 17 -27 39 -49 39 -16 0 -21 6 -21 25 0 18 -5 25 -20 25 -11 0 -20 -6 -20 -13z"/>
<path d="M812 2615 c-11 -12 -10 -15 2 -15 11 0 16 -15 19 -62 3 -62 3 -62 5 15 2 78 -2 88 -26 62z"/>
<path d="M2663 2615 c-15 -17 -17 -55 -3 -55 6 0 10 7 10 15 0 8 6 15 14 15 9 0 12 7 9 20 -6 23 -13 25 -30 5z"/>
<path d="M70 2604 c-25 -13 -25 -14 -2 -14 12 0 22 5 22 10 0 6 18 10 41 10 24 0 38 -4 34 -10 -3 -5 1 -10 9 -10 9 0 16 -7 16 -15 0 -12 -15 -15 -72 -16 -73 -1 -73 -1 -24 -10 27 -4 53 -14 57 -21 7 -10 9 -10 9 0 0 8 20 13 63 14 55 1 57 2 15 5 -37 3 -46 7 -41 19 16 43 -70 70 -127 38z"/>
<path d="M407 2603 c18 -2 50 -2 70 0 21 2 7 4 -32 4 -38 0 -55 -2 -38 -4z"/>
<path d="M870 2531 c0 -55 4 -82 14 -90 11 -9 15 -8 20 6 4 10 2 19 -3 21 -6 2 -11 33 -11 73 0 39 -4 69 -10 69 -6 0 -10 -33 -10 -79z"/>
<path d="M2110 2594 c0 -8 -4 -13 -9 -9 -5 3 -18 -6 -29 -20 -14 -17 -30 -25 -53 -26 l-34 -1 28 -10 c19 -7 27 -17 27 -34 0 -15 6 -24 16 -24 8 0 13 4 9 9 -3 5 -1 12 5 16 5 3 10 15 10 26 0 10 7 19 15 19 8 0 15 7 15 15 0 8 5 15 10 15 6 0 10 -7 10 -15 0 -8 -4 -15 -10 -15 -6 0 -10 -27 -10 -60 0 -57 -1 -60 -25 -60 -14 0 -25 -4 -25 -10 0 -5 11 -10 25 -10 14 0 25 -4 25 -10 0 -5 11 -10 25 -10 14 0 25 5 25 10 0 6 -7 10 -15 10 -12 0 -15 13 -15 56 0 36 5 61 15 70 21 22 20 64 -2 64 -15 0 -16 2 -3 10 12 8 11 10 -7 10 -14 0 -23 -6 -23 -16z"/>
<path d="M2180 2575 c0 -32 19 -52 21 -22 0 6 2 22 3 35 2 13 -3 22 -11 22 -8 0 -13 -13 -13 -35z"/>
<path d="M2910 2575 c0 -25 4 -33 14 -29 10 4 12 -2 8 -22 -3 -19 -1 -25 7 -20 10 6 15 -6 12 -26 0 -5 6 -8 14 -8 12 0 15 9 13 35 -1 19 -6 35 -11 35 -16 0 -37 28 -37 49 0 12 -4 21 -10 21 -5 0 -10 -16 -10 -35z"/>
<path d="M299 2580 c-6 -4 6 -11 28 -15 36 -7 36 -8 13 -15 -16 -5 -1 -8 45 -7 44 0 54 2 27 4 -23 2 -40 8 -37 14 8 12 162 12 170 -1 3 -5 -4 -11 -17 -11 -17 -1 -18 -3 -5 -6 9 -2 17 -13 17 -23 0 -22 16 -35 25 -20 3 5 1 10 -4 10 -6 0 -11 4 -11 9 0 4 18 7 39 6 22 -1 56 6 78 16 30 14 33 18 16 19 -13 0 -23 -4 -23 -10 0 -5 -22 -10 -50 -10 -47 0 -50 2 -50 26 l0 25 -125 -2 c-68 -1 -129 -5 -136 -9z"/>
<path d="M2865 2566 c-5 -12 -3 -21 7 -27 8 -5 13 -20 12 -38 -1 -21 3 -31 12 -31 9 0 14 -12 14 -37 0 -28 3 -34 10 -23 8 12 10 11 10 -7 0 -13 5 -23 10 -23 6 0 10 -7 10 -15 0 -8 -4 -15 -10 -15 -5 0 -10 -4 -10 -10 0 -5 11 -10 25 -10 22 0 25 -4 25 -35 0 -19 5 -35 10 -35 6 0 10 20 10 45 0 25 -4 45 -10 45 -5 0 -10 11 -10 25 0 16 -6 25 -15 25 -8 0 -15 9 -15 20 0 11 -4 20 -10 20 -5 0 -10 11 -10 25 0 14 -4 25 -10 25 -5 0 -10 6 -10 14 0 8 -6 21 -14 28 -8 8 -16 23 -18 34 -5 18 -5 18 -13 0z"/>
<path d="M934 2551 c4 -5 1 -22 -4 -37 -8 -19 -8 -30 0 -38 7 -7 10 -1 10 18 0 15 4 25 10 21 6 -4 10 5 10 19 0 17 -6 26 -16 26 -8 0 -13 -4 -10 -9z"/>
<path d="M2600 2550 c0 -5 -18 -10 -40 -10 -57 0 -78 -23 -72 -77 2 -24 8 -43 13 -43 12 0 11 -37 -1 -45 -6 -4 -10 5 -10 19 0 16 -6 26 -15 26 -10 0 -15 -11 -15 -35 0 -31 3 -35 25 -35 24 0 25 -2 25 -70 0 -54 -3 -70 -14 -70 -12 0 -14 -21 -14 -105 0 -84 2 -105 14 -105 8 0 14 -5 14 -11 0 -6 7 -9 14 -6 10 4 13 1 10 -8 -6 -14 17 -45 31 -45 14 0 37 -31 31 -45 -3 -9 0 -12 10 -8 7 3 14 16 14 29 0 15 6 24 15 24 9 0 15 9 15 25 0 18 5 25 20 25 16 0 20 6 19 33 0 27 -2 29 -9 12 -5 -12 -9 -15 -9 -6 -1 12 -4 12 -13 3 -10 -10 -10 -15 2 -22 13 -8 13 -10 -2 -10 -9 0 -19 6 -21 13 -3 6 -6 2 -6 -10 -1 -27 -43 -73 -49 -55 -2 7 -10 12 -18 12 -8 0 -14 10 -14 25 0 14 -4 25 -10 25 -6 0 -10 67 -10 181 0 117 3 178 10 174 6 -4 10 17 10 54 0 34 -4 61 -10 61 -5 0 -10 12 -10 26 0 24 3 26 35 22 24 -3 35 0 35 9 0 7 7 13 16 13 8 0 12 5 9 10 -3 6 -10 10 -16 10 -5 0 -9 -4 -9 -10z"/>
<path d="M2787 2528 c3 -18 9 -35 13 -38 4 -3 10 -23 14 -44 10 -53 46 -90 46 -46 0 11 -7 20 -15 20 -9 0 -15 9 -15 25 0 16 6 25 15 25 8 0 15 8 14 18 0 9 -3 12 -5 6 -8 -19 -44 -4 -44 18 0 11 -7 26 -15 34 -13 13 -14 11 -8 -18z"/>
<path d="M975 2530 c-3 -5 3 -10 14 -10 16 0 21 -6 21 -25 0 -14 -4 -25 -10 -25 -5 0 -10 -8 -10 -17 0 -14 2 -15 9 -5 6 10 10 7 13 -12 5 -23 3 -26 -15 -20 -13 4 -17 2 -13 -5 4 -6 16 -11 28 -11 14 0 18 5 14 16 -4 11 -2 15 8 11 9 -4 16 3 19 19 3 17 0 24 -12 25 -9 1 -2 5 14 9 l30 8 -27 1 c-16 0 -28 6 -28 12 0 13 -25 39 -39 39 -5 0 -13 -4 -16 -10z"/>
<path d="M192 2512 c-19 -13 29 -35 64 -29 26 4 25 4 -8 6 -23 0 -38 6 -40 16 -2 9 -8 11 -16 7z"/>
<path d="M1949 2513 c-1 -5 -1 -11 0 -15 0 -5 -7 -8 -16 -9 -10 0 -13 -3 -7 -5 6 -3 23 2 38 9 22 12 24 16 11 21 -21 8 -25 8 -26 -1z"/>
<path d="M1 2473 c0 -10 4 -27 9 -38 7 -16 9 -13 9 18 1 20 -3 37 -9 37 -5 0 -10 -8 -9 -17z"/>
<path d="M2600 2470 c0 -11 7 -20 15 -20 8 0 15 -7 15 -16 0 -8 5 -12 10 -9 6 4 10 -7 10 -25 0 -18 -4 -29 -10 -25 -9 5 -15 -15 -11 -37 0 -5 -6 -8 -14 -8 -11 0 -15 -14 -17 -57 l-1 -58 -7 60 -7 60 -1 -72 c-1 -43 2 -73 8 -73 6 0 10 -28 10 -62 0 -45 3 -59 10 -48 5 8 10 11 11 5 0 -5 2 -18 4 -27 4 -20 -11 -24 -18 -5 -4 7 -6 6 -6 -4 -1 -9 8 -19 19 -22 11 -3 18 0 17 7 -1 6 6 10 16 8 10 -2 17 3 17 13 0 8 -4 15 -10 15 -5 0 -10 16 -10 35 0 24 -5 35 -15 35 -22 0 -18 15 10 36 20 15 25 28 25 60 0 44 -17 62 -40 41 -10 -9 -11 -9 -6 1 4 6 2 12 -3 12 -6 0 -1 18 10 40 12 22 25 40 30 40 5 0 9 7 9 15 0 8 6 15 14 15 9 0 12 8 9 24 -6 30 13 44 22 16 4 -13 15 -20 32 -20 15 0 23 5 20 13 -2 6 -10 11 -16 10 -6 -2 -11 2 -11 8 0 17 -27 39 -49 39 -12 0 -21 -4 -21 -10 0 -5 -11 -10 -25 -10 -14 0 -25 5 -25 10 0 6 -4 10 -10 10 -5 0 -10 -9 -10 -20z m47 -268 c-10 -10 -22 -12 -34 -6 -15 7 -14 8 10 12 20 2 27 9 26 25 0 12 -3 16 -6 10 -7 -18 -23 -16 -23 1 0 8 8 16 18 18 23 5 29 -39 9 -60z"/>
<path d="M1076 2464 c15 -6 6 -44 -10 -44 -27 -1 22 -20 51 -20 17 0 33 -6 36 -12 4 -10 7 -10 18 0 11 10 10 12 -4 12 -9 0 -17 5 -17 10 0 6 -11 10 -25 10 -18 0 -25 5 -25 19 0 11 6 22 13 24 6 3 -1 5 -18 5 -16 0 -25 -2 -19 -4z"/>
<path d="M1863 2463 c35 -9 15 -22 -33 -20 -46 2 -50 0 -50 -22 0 -19 4 -22 23 -17 12 3 28 6 35 6 7 0 10 5 7 10 -3 6 1 10 10 10 9 0 28 9 42 20 l26 20 -39 -1 c-22 -1 -31 -3 -21 -6z"/>
<path d="M1933 2455 c-18 -20 -16 -55 2 -55 11 0 14 7 9 25 -5 19 -2 25 10 25 9 0 16 5 16 10 0 15 -23 12 -37 -5z"/>
<path d="M2975 2460 c-11 -5 -14 -9 -7 -9 6 -1 12 -8 12 -16 0 -8 5 -15 10 -15 6 0 10 11 10 25 0 14 -1 25 -2 24 -2 0 -12 -4 -23 -9z"/>
<path d="M710 2430 c-2 -3 -4 -15 -5 -27 -2 -24 20 -32 28 -10 4 9 8 8 16 -3 13 -18 14 -1 2 19 -5 7 -13 11 -19 7 -6 -3 -13 0 -15 6 -3 7 -6 11 -7 8z"/>
<path d="M819 2428 c-6 -20 -4 -70 4 -95 14 -43 -3 -83 -36 -83 -19 0 -27 8 -37 39 -7 22 -10 49 -7 60 3 12 1 21 -4 21 -14 0 -11 -87 4 -94 10 -5 10 -7 0 -12 -7 -3 -13 -11 -13 -17 0 -17 76 -12 95 6 17 17 21 97 5 97 -5 0 -10 7 -10 15 0 8 5 15 10 15 6 0 10 11 10 25 0 14 -4 25 -10 25 -5 0 -10 -1 -11 -2z"/>
<path d="M1227 2413 c18 -2 50 -2 70 0 21 2 7 4 -32 4 -38 0 -55 -2 -38 -4z"/>
<path d="M1690 2405 c0 -8 6 -15 13 -15 8 0 7 -3 -3 -10 -8 -5 -25 -7 -37 -3 -17 4 -23 1 -23 -11 0 -9 -4 -16 -10 -16 -5 0 -10 -9 -10 -20 0 -23 15 -27 23 -6 6 14 57 29 57 16 0 -13 -36 -40 -53 -40 -9 0 -17 -5 -17 -11 0 -8 -4 -8 -12 -2 -18 13 -68 15 -68 3 0 -6 14 -10 31 -10 17 0 28 -4 24 -10 -3 -5 3 -10 14 -10 12 0 21 5 21 10 0 6 16 10 35 10 31 0 35 3 35 25 0 24 3 25 60 25 57 0 60 1 60 25 0 16 -6 25 -15 25 -8 0 -15 -7 -15 -15 0 -11 -11 -15 -36 -15 -29 0 -35 3 -32 18 2 9 10 16 16 15 7 -2 12 2 12 7 0 6 -15 11 -32 11 -32 2 -32 2 7 9 l40 7 -42 2 c-32 1 -43 -3 -43 -14z"/>
<path d="M0 2375 c0 -27 7 -30 30 -15 10 6 11 10 3 10 -7 0 -13 7 -13 15 0 8 -4 15 -10 15 -5 0 -10 -11 -10 -25z"/>
<path d="M1054 2384 c3 -9 6 -20 6 -25 0 -5 5 -9 10 -9 6 0 10 11 10 25 0 16 -6 25 -16 25 -11 0 -14 -5 -10 -16z"/>
<path d="M1196 2390 c13 -13 94 -19 94 -7 0 4 5 5 10 2 6 -3 10 -1 10 4 0 7 -25 11 -62 11 -43 0 -59 -3 -52 -10z"/>
<path d="M1420 2391 c47 -3 91 -10 98 -14 20 -13 14 -27 -13 -27 -16 0 -25 -6 -25 -16 0 -11 5 -14 17 -10 9 4 20 1 25 -6 8 -10 11 -10 15 0 2 6 15 12 27 12 27 0 63 35 47 45 -10 6 -15 -1 -12 -17 0 -5 -13 -8 -30 -8 -20 0 -29 4 -26 13 2 6 14 11 26 10 11 -2 21 1 21 7 0 5 17 11 38 13 20 2 -37 4 -128 4 -121 0 -142 -2 -80 -6z"/>
<path d="M2205 2350 l7 -53 -26 7 -26 6 0 -66 c0 -48 -3 -65 -12 -62 -7 3 -14 21 -16 41 -4 43 -22 50 -22 10 0 -20 -3 -24 -9 -14 -9 14 -20 -79 -13 -113 4 -20 22 -21 22 -1 0 9 9 15 25 15 16 0 25 -6 25 -15 0 -12 10 -14 42 -11 48 4 65 26 21 26 -30 1 -118 38 -93 40 29 2 51 29 56 67 2 21 14 51 25 66 23 31 23 97 0 105 -10 3 -12 -7 -6 -48z"/>
<path d="M871 2318 c-1 -45 3 -78 9 -78 5 0 7 7 3 16 -4 10 1 17 16 21 24 6 27 18 7 30 -7 4 -18 26 -24 48 -9 38 -10 36 -11 -37z"/>
<path d="M990 2372 c0 -21 -19 -42 -38 -42 -9 0 -12 7 -8 23 3 12 3 16 0 10 -3 -7 -12 -13 -20 -13 -8 0 -14 -4 -14 -10 0 -5 7 -10 15 -10 8 0 15 -4 15 -10 0 -5 9 -10 20 -10 11 0 20 5 20 10 0 6 7 10 15 10 10 0 15 10 15 30 0 17 -4 30 -10 30 -5 0 -10 -8 -10 -18z"/>
<path d="M2708 2362 c-5 -22 -15 -36 -29 -39 -30 -8 -5 -20 31 -15 18 2 30 10 30 19 0 8 -4 12 -9 8 -5 -3 -11 9 -13 27 l-3 33 -7 -33z"/>
<path d="M1170 2353 c0 -22 2 -25 10 -13 6 10 10 11 10 3 0 -7 9 -13 20 -13 23 0 60 -33 60 -54 0 -19 10 -22 75 -18 46 3 55 7 55 23 0 10 -4 19 -10 19 -5 0 -10 7 -10 15 0 8 7 15 15 15 8 0 15 -4 15 -10 0 -11 33 -14 43 -4 12 13 -6 34 -32 36 -14 1 -1 4 29 8 l55 7 -62 1 c-35 1 -62 -1 -62 -5 4 -23 -3 -33 -21 -33 -11 0 -20 5 -20 10 0 6 -16 10 -35 10 -19 0 -35 -4 -35 -10 0 -16 -27 -12 -34 5 -3 8 -12 12 -21 9 -10 -4 -15 0 -15 10 0 9 -7 16 -15 16 -10 0 -15 -10 -15 -27z m190 -58 c0 -15 -5 -17 -51 -19 -20 -1 -25 2 -21 16 6 23 72 26 72 3z"/>
<path d="M2040 2365 c0 -8 -6 -15 -13 -15 -16 0 -10 -79 7 -94 29 -27 58 -12 49 25 -6 20 -23 27 -23 9 0 -5 -4 -10 -10 -10 -5 0 -10 11 -10 25 0 18 5 25 19 25 11 0 23 5 26 10 3 6 -1 10 -9 10 -9 0 -16 7 -16 15 0 8 -4 15 -10 15 -5 0 -10 -7 -10 -15z"/>
<path d="M2770 2353 c0 -22 2 -25 10 -13 8 12 10 9 10 -13 0 -16 4 -26 9 -22 5 3 16 -2 24 -10 9 -8 20 -15 26 -15 6 0 11 -9 11 -21 0 -19 21 -49 35 -49 16 0 35 -32 35 -59 0 -33 3 -35 35 -21 17 7 17 9 3 9 -12 1 -18 9 -18 24 0 12 -9 29 -20 37 -11 8 -20 20 -20 27 0 7 -7 13 -15 13 -8 0 -15 9 -15 20 0 11 -4 20 -10 20 -5 0 -10 12 -10 28 0 21 -2 24 -10 12 -8 -12 -10 -11 -10 8 0 13 -6 22 -15 22 -8 0 -15 7 -15 15 0 8 -9 15 -20 15 -15 0 -20 -7 -20 -27z"/>
<path d="M2141 2353 c-27 -5 -51 -25 -51 -42 0 -6 5 -11 10 -11 6 0 10 7 10 15 0 8 7 15 16 15 8 0 12 -4 9 -10 -3 -5 -1 -10 5 -10 6 0 14 8 17 18 4 9 11 20 17 24 12 8 7 8 -33 1z"/>
<path d="M1170 2269 c0 -47 -3 -54 -46 -96 -25 -24 -43 -47 -39 -51 4 -4 10 -1 12 6 3 6 16 12 29 12 15 0 24 6 24 15 0 8 5 15 10 15 6 0 10 9 10 20 0 11 5 20 10 20 14 0 60 -46 60 -60 0 -5 7 -10 15 -10 8 0 15 -4 15 -10 0 -6 27 -10 63 -9 44 0 56 3 42 9 -18 8 -17 9 8 9 22 1 27 5 27 27 0 20 -4 25 -16 20 -9 -3 -18 -6 -20 -6 -2 0 -4 -6 -4 -14 0 -15 -30 -26 -72 -26 -18 0 -33 9 -47 29 -33 46 -26 53 32 31 62 -24 77 -25 77 -5 0 10 -11 15 -35 15 -19 0 -35 5 -35 10 0 6 -11 10 -25 10 -16 0 -25 6 -25 15 0 10 -10 15 -28 15 -26 0 -28 3 -24 30 3 18 0 30 -7 30 -7 0 -11 -20 -11 -51z"/>
<path d="M0 2296 c0 -9 5 -16 10 -16 6 0 10 -18 10 -39 0 -22 4 -51 10 -65 5 -15 12 -66 15 -114 3 -48 10 -103 15 -122 6 -19 10 -49 10 -66 0 -16 5 -35 10 -40 6 -6 12 -47 15 -91 3 -45 9 -93 15 -108 5 -14 10 -46 10 -70 0 -24 5 -47 10 -50 6 -4 10 20 10 64 0 51 -4 71 -13 71 -9 0 -12 25 -12 93 0 68 -3 91 -12 89 -9 -1 -13 16 -13 64 0 41 -4 63 -10 59 -6 -4 -10 37 -10 114 0 70 -4 121 -10 121 -5 0 -10 26 -12 58 -3 50 -6 57 -25 60 -16 2 -23 -2 -23 -12z"/>
<path d="M1100 2298 c0 -7 -9 -20 -20 -28 -11 -8 -20 -20 -20 -27 0 -7 -11 -13 -25 -13 -16 0 -25 6 -25 15 0 8 -4 15 -10 15 -5 0 -10 -7 -10 -15 0 -11 -10 -14 -37 -12 -35 2 -38 0 -41 -25 -3 -29 15 -39 24 -13 7 18 34 20 34 3 0 -7 5 -5 11 5 5 9 14 17 19 17 15 0 12 -50 -4 -66 -21 -20 -36 -17 -36 7 0 11 -5 17 -10 14 -7 -4 -6 -14 2 -28 7 -12 15 -47 19 -77 l6 -55 2 53 c0 28 6 52 11 52 18 0 116 103 102 108 -6 2 -12 8 -12 14 0 13 26 38 40 38 15 0 8 22 -8 28 -7 2 -12 -2 -12 -10z"/>
<path d="M1421 2264 c-7 -8 -10 -18 -6 -22 4 -4 10 -1 12 6 5 14 33 16 33 2 0 -12 67 -14 74 -2 2 4 -12 8 -31 8 -20 0 -38 5 -41 12 -5 16 -24 14 -41 -4z"/>
<path d="M2421 2252 c2 -17 -3 -36 -14 -46 -13 -13 -17 -34 -17 -86 0 -38 5 -72 10 -75 6 -4 10 10 10 34 0 30 4 41 15 41 8 0 15 -7 15 -15 0 -8 5 -15 10 -15 6 0 10 5 10 11 0 14 -32 46 -39 39 -3 -3 -7 7 -9 23 -2 18 1 27 11 27 10 0 14 12 13 45 0 25 -4 45 -9 45 -5 0 -7 -13 -6 -28z"/>
<path d="M1660 2250 c0 -5 7 -10 15 -10 8 0 15 -5 15 -11 0 -6 8 -8 19 -4 10 3 31 1 47 -6 l29 -11 -28 -23 c-41 -36 -92 -47 -133 -30 -25 10 -34 11 -35 2 0 -7 -4 -3 -9 8 -5 11 -9 14 -9 7 -1 -7 -5 -10 -11 -7 -5 3 -10 -1 -10 -9 0 -12 11 -16 45 -16 25 0 45 -4 45 -10 0 -5 7 -10 15 -10 8 0 15 -6 16 -12 0 -7 5 -3 11 10 8 16 20 22 45 22 24 0 33 4 34 18 0 14 2 14 9 -3 5 -11 9 -14 9 -7 1 16 26 42 40 42 6 0 11 5 11 10 0 6 -5 9 -11 8 -6 -2 -14 3 -16 10 -3 6 2 12 11 12 9 0 16 7 16 15 0 12 -16 15 -85 15 -50 0 -85 -4 -85 -10z"/>
<path d="M1950 2235 c0 -14 5 -25 10 -25 6 0 10 -11 10 -25 0 -14 4 -25 10 -25 5 0 9 11 8 25 -1 14 -6 25 -10 25 -4 0 -8 11 -8 25 0 14 -4 25 -10 25 -5 0 -10 -11 -10 -25z"/>
<path d="M2747 2213 c-12 -11 -8 -23 8 -23 8 0 15 -7 15 -15 0 -8 -7 -15 -15 -15 -8 0 -15 -4 -15 -10 0 -5 11 -10 25 -10 22 0 25 -4 25 -35 0 -19 4 -35 8 -35 11 0 2 69 -9 76 -5 3 -9 13 -9 22 -1 21 -25 54 -33 45z"/>
<path d="M1444 2182 c-4 -15 -13 -38 -21 -51 -13 -20 -13 -25 -2 -32 25 -16 29 -10 29 40 0 44 3 50 23 53 l22 3 -23 7 c-18 5 -23 1 -28 -20z"/>
<path d="M1518 2196 c-16 -11 -26 -56 -14 -56 14 0 57 51 51 59 -8 14 -16 13 -37 -3z"/>
<path d="M770 2154 c0 -8 10 -14 25 -14 19 0 25 -5 25 -21 0 -12 -7 -27 -17 -34 -11 -8 -12 -14 -5 -19 6 -3 17 4 24 16 15 27 19 58 7 58 -5 0 -9 6 -9 13 0 6 -11 13 -25 13 -15 1 -25 -3 -25 -12z"/>
<path d="M2014 2156 c-7 -20 2 -46 16 -46 13 0 13 47 0 55 -6 3 -13 -1 -16 -9z"/>
<path d="M2839 2112 c-2 -35 -1 -71 3 -80 6 -16 7 -16 7 1 1 12 10 17 34 17 24 0 28 3 17 10 -11 7 -12 10 -2 10 8 0 12 6 9 13 -2 6 -10 11 -16 10 -16 -4 -14 6 6 25 16 16 15 17 -7 20 -13 2 -30 11 -36 20 -10 14 -13 5 -15 -46z"/>
<path d="M1170 2134 c0 -14 -4 -23 -10 -19 -6 4 -10 -5 -10 -19 0 -14 -4 -26 -10 -26 -5 0 -10 -7 -10 -15 0 -8 -7 -15 -15 -15 -8 0 -15 7 -15 15 0 9 -9 15 -24 15 -19 0 -22 -4 -18 -25 4 -23 1 -25 -32 -25 -22 0 -35 -4 -31 -10 9 -14 47 -12 70 3 11 7 30 14 43 15 19 1 21 -2 12 -14 -7 -8 -20 -14 -29 -15 -12 0 -11 -2 4 -9 20 -9 20 -9 0 -10 -11 -2 -23 -2 -27 -1 -5 0 -8 -6 -8 -14 0 -8 -7 -15 -16 -15 -8 0 -13 -4 -10 -9 10 -16 86 20 86 41 0 10 7 18 15 18 10 0 15 -10 15 -27 l0 -28 13 25 c10 19 10 26 1 28 -7 2 -14 11 -17 21 -3 14 1 17 22 14 14 -2 20 0 14 3 -7 3 -13 17 -13 31 0 39 42 71 53 41 2 -8 8 -9 13 -4 5 5 3 11 -5 14 -7 2 -22 13 -32 23 -25 25 -29 24 -29 -7z"/>
<path d="M2302 2120 c-6 -11 -15 -19 -20 -19 -20 3 -32 -2 -32 -16 0 -10 10 -15 31 -15 16 0 28 4 25 9 -4 5 -1 11 5 13 6 2 9 14 7 26 -3 23 -3 23 -16 2z"/>
<path d="M2950 2095 c0 -16 6 -25 15 -25 9 0 15 -9 15 -25 0 -14 5 -25 10 -25 6 0 10 11 10 25 0 14 -4 25 -10 25 -5 0 -10 11 -10 25 0 16 -6 25 -15 25 -9 0 -15 -9 -15 -25z"/>
<path d="M1290 2085 c0 -10 -11 -15 -35 -15 -19 0 -35 5 -35 10 0 6 -4 10 -10 10 -5 0 -10 -10 -10 -22 0 -12 3 -18 7 -15 3 4 11 3 17 -2 15 -13 76 14 76 34 0 8 -2 15 -5 15 -3 0 -5 -7 -5 -15z"/>
<path d="M1997 2093 c-12 -11 -8 -23 8 -23 9 0 15 -9 15 -25 0 -16 -6 -25 -15 -25 -10 0 -15 -11 -15 -35 0 -24 5 -35 15 -35 8 0 15 -4 15 -10 0 -5 5 -10 10 -10 6 0 10 9 10 21 0 11 -4 18 -9 15 -5 -3 -12 1 -15 10 -8 21 -8 24 5 24 11 0 39 24 39 34 0 12 -57 65 -63 59z"/>
<path d="M1324 2078 c1 -7 21 -22 44 -33 46 -22 54 -35 21 -35 -18 0 -19 -2 -5 -15 8 -8 22 -15 30 -15 21 0 22 75 2 96 -17 16 -36 19 -36 4 0 -13 -47 -13 -53 0 -3 6 -4 5 -3 -2z"/>
<path d="M1550 2067 c0 -20 4 -22 45 -19 36 3 45 1 45 -12 0 -9 7 -16 16 -16 8 0 12 -4 9 -10 -3 -5 1 -10 9 -10 9 0 15 6 14 12 -2 9 9 12 36 11 36 -3 38 -1 34 22 -4 17 -1 25 8 25 8 0 14 5 14 10 0 6 -22 10 -49 10 -28 0 -53 -4 -56 -10 -3 -5 -1 -10 4 -10 6 0 11 -7 11 -15 0 -8 -7 -15 -15 -15 -8 0 -15 7 -15 16 0 9 -5 12 -12 8 -8 -5 -9 -2 -5 9 4 11 1 17 -8 17 -8 0 -15 -4 -15 -10 0 -5 -7 -10 -15 -10 -8 0 -15 5 -15 10 0 6 -9 10 -20 10 -14 0 -20 -7 -20 -23z"/>
<path d="M2720 2030 c0 -33 -4 -60 -10 -60 -5 0 -10 -20 -10 -45 0 -33 -4 -45 -15 -45 -8 0 -15 -9 -15 -20 0 -11 5 -20 10 -20 6 0 10 5 10 10 0 6 7 10 15 10 8 0 15 7 15 16 0 9 6 14 12 12 8 -3 12 -19 10 -41 -2 -22 1 -37 7 -37 7 0 11 24 11 60 0 47 3 60 15 60 8 0 15 6 15 13 0 8 8 13 18 13 9 -1 17 4 17 9 0 6 -3 9 -7 8 -5 -2 -8 15 -8 37 0 22 -4 40 -10 40 -5 0 -10 -11 -10 -25 0 -14 -4 -25 -10 -25 -5 0 -10 -8 -10 -18 0 -10 -5 -23 -11 -29 -6 -6 -12 -19 -13 -29 -2 -10 -9 -20 -16 -22 -7 -3 -10 0 -6 6 3 6 2 13 -4 17 -5 3 -10 14 -10 23 0 13 2 14 9 4 7 -11 10 -10 15 3 10 27 7 135 -4 135 -6 0 -10 -27 -10 -60z"/>
<path d="M2243 2043 c-23 -9 -14 -20 15 -18 44 3 48 5 32 15 -16 10 -28 11 -47 3z"/>
<path d="M2920 2025 c0 -12 -9 -15 -35 -13 -19 1 -37 -1 -41 -5 -4 -4 -2 -7 4 -7 7 0 12 -11 12 -25 0 -15 5 -24 13 -22 8 1 11 -10 9 -35 -3 -29 0 -38 12 -38 12 0 16 -10 16 -35 0 -19 5 -35 10 -35 6 0 10 -9 10 -20 0 -11 5 -20 10 -20 6 0 10 -7 10 -15 0 -8 6 -15 14 -15 11 0 13 22 13 105 -1 77 -4 105 -13 105 -8 0 -14 17 -17 43 l-4 42 -1 -46 c-1 -32 -7 -49 -18 -53 -21 -8 -26 -8 -20 3 3 4 -3 16 -14 26 -28 25 -25 35 10 35 23 0 30 4 30 20 0 11 -2 20 -5 20 -3 0 -5 -7 -5 -15z m34 -117 c-5 -13 -7 -36 -6 -52 2 -33 -16 -24 -19 9 -4 43 1 65 17 65 12 0 13 -5 8 -22z"/>
<path d="M1848 2023 c-27 -7 -21 -23 7 -23 14 0 25 4 25 9 0 13 -12 18 -32 14z"/>
<path d="M770 2000 c0 -11 -4 -20 -10 -20 -5 0 -10 -11 -10 -25 0 -16 6 -25 16 -25 11 0 14 6 9 20 -4 13 -1 22 9 26 20 8 21 44 1 44 -8 0 -15 -9 -15 -20z"/>
<path d="M2376 1999 c-16 -16 -17 -19 -4 -19 9 0 18 4 20 10 2 5 18 10 36 12 17 1 32 6 32 10 0 16 -66 6 -84 -13z"/>
<path d="M883 1985 c-15 -17 -17 -55 -3 -55 6 0 10 11 10 25 0 14 5 25 10 25 6 0 10 5 10 10 0 14 -13 12 -27 -5z"/>
<path d="M1875 1990 c-3 -5 1 -10 9 -10 9 0 16 -7 16 -15 0 -8 5 -15 10 -15 6 0 10 -9 10 -20 0 -15 7 -20 25 -20 18 0 25 5 25 20 0 15 -7 20 -25 20 -14 0 -25 5 -25 11 0 11 -24 39 -34 39 -3 0 -8 -4 -11 -10z"/>
<path d="M2180 1984 c0 -8 -4 -13 -9 -9 -12 7 -43 -24 -36 -36 4 -5 -8 -9 -24 -9 -17 0 -31 5 -31 10 0 6 -4 10 -10 10 -5 0 -10 -9 -10 -20 0 -11 6 -20 14 -20 11 0 14 -19 15 -82 1 -53 5 -85 13 -91 10 -7 10 -10 1 -14 -7 -2 -13 -16 -13 -29 0 -14 4 -22 10 -19 6 3 10 15 10 26 0 20 15 26 25 9 11 -18 23 -11 18 10 -3 11 -9 20 -14 20 -5 0 -9 11 -9 24 0 13 -4 26 -9 28 -12 4 -26 59 -15 57 19 -3 29 2 18 9 -19 12 -27 52 -11 52 16 0 49 34 42 43 -3 4 -2 5 1 2 4 -2 15 0 25 6 20 10 26 39 9 39 -5 0 -10 -7 -10 -16z"/>
<path d="M2318 1990 c-1 -5 -23 -12 -48 -13 -27 -2 -44 -8 -42 -15 1 -7 -5 -12 -14 -12 -8 0 -12 -4 -9 -10 3 -5 -1 -10 -9 -10 -9 0 -16 -5 -16 -11 0 -7 -10 -20 -22 -30 -11 -11 -16 -19 -10 -19 6 0 19 10 29 23 10 12 30 28 46 36 15 8 27 18 27 22 0 5 7 6 15 3 22 -9 18 -22 -7 -27 l-23 -4 23 -8 c13 -4 22 -15 22 -27 0 -18 21 -48 34 -48 10 0 6 38 -4 42 -17 5 -21 68 -4 68 8 0 14 7 14 15 0 8 5 15 10 15 6 0 10 5 10 10 0 13 -17 13 -22 0z"/>
<path d="M1667 1973 c-14 -13 -6 -23 18 -23 16 0 25 6 25 15 0 15 -31 21 -43 8z"/>
<path d="M1739 1978 c-1 -2 -3 -13 -4 -25 -2 -20 2 -23 35 -23 32 0 36 3 35 23 -1 17 -9 23 -33 25 -18 2 -33 2 -33 0z"/>
<path d="M2443 1973 c-18 -6 -16 -23 1 -23 8 0 16 -6 19 -12 4 -10 7 -10 18 0 11 10 10 12 -3 12 -9 0 -18 6 -20 13 -2 8 -9 12 -15 10z"/>
<path d="M1368 1963 c6 -2 12 -15 12 -27 0 -20 8 -24 58 -33 38 -7 59 -7 63 -1 4 6 9 5 12 -3 4 -10 6 -10 6 -1 1 6 10 12 22 12 19 0 49 21 49 34 0 3 -16 6 -36 6 -21 0 -33 -4 -29 -10 3 -5 0 -10 -9 -10 -8 0 -17 6 -20 13 -5 10 -7 10 -12 0 -7 -15 -34 -17 -34 -3 0 6 -8 10 -17 10 -15 0 -16 -2 -3 -10 10 -6 11 -10 3 -10 -7 0 -22 9 -33 20 -11 11 -26 20 -32 19 -10 0 -10 -2 0 -6z"/>
<path d="M820 1905 c0 -14 -4 -25 -10 -25 -5 0 -10 -4 -10 -10 0 -5 9 -10 20 -10 11 0 20 7 20 15 0 8 6 15 14 15 9 0 12 7 9 20 -8 30 -43 26 -43 -5z"/>
<path d="M1113 1915 c-7 -8 -13 -19 -13 -25 0 -5 -9 -10 -20 -10 -11 0 -20 -4 -20 -10 0 -5 -7 -10 -15 -10 -10 0 -15 -11 -15 -35 0 -19 2 -35 5 -35 14 0 40 37 37 53 -2 9 3 17 10 17 7 0 20 9 28 20 8 11 20 20 27 20 7 0 13 7 13 15 0 19 -21 19 -37 0z"/>
<path d="M1660 1905 c0 -14 5 -25 11 -25 14 0 39 -26 39 -40 0 -15 22 -8 28 8 2 7 -2 12 -8 12 -18 0 -40 27 -40 49 0 12 -6 21 -15 21 -9 0 -15 -9 -15 -25z"/>
<path d="M2498 1923 c6 -2 12 -11 12 -18 0 -7 9 -15 20 -18 11 -3 20 -1 20 5 0 16 -27 38 -47 37 -10 0 -13 -3 -5 -6z"/>
<path d="M1310 1852 c0 -36 6 -66 15 -78 8 -10 15 -27 15 -36 0 -10 5 -18 11 -18 5 0 7 5 4 10 -3 6 1 10 9 10 9 0 16 -4 16 -10 0 -5 7 -10 15 -10 8 0 15 7 15 15 0 8 5 15 10 15 6 0 10 -5 10 -11 0 -6 7 -17 16 -26 8 -9 13 -22 10 -29 -4 -11 8 -14 57 -14 39 0 57 4 48 9 -11 7 -9 10 8 16 11 3 21 11 21 16 0 5 11 9 25 9 31 0 31 -6 3 -31 l-23 -18 23 -1 c19 0 22 -5 22 -45 0 -25 -4 -45 -8 -45 -5 0 -13 -16 -19 -35 -10 -31 -9 -35 7 -35 13 0 19 11 23 52 4 29 11 54 17 56 15 5 12 28 -5 42 -23 19 -18 33 10 26 20 -5 25 -3 25 14 0 11 -5 20 -11 20 -14 0 -39 26 -39 40 0 6 -4 8 -10 5 -5 -3 -10 1 -10 9 0 9 -7 16 -15 16 -9 0 -15 9 -15 25 0 16 6 25 15 25 8 0 15 -7 15 -15 0 -8 5 -15 10 -15 15 0 12 19 -4 36 -20 19 -92 19 -100 -1 -3 -8 -10 -15 -16 -15 -5 0 -10 7 -10 15 0 12 -13 15 -60 15 -33 0 -60 4 -60 10 0 6 -9 10 -19 10 -10 0 -21 7 -25 15 -13 34 -26 12 -26 -43z m74 -7 c3 -10 -1 -15 -12 -15 -14 0 -14 -2 -3 -9 9 -6 31 -4 58 4 38 11 44 11 39 0 -4 -11 5 -14 35 -12 26 1 44 -4 50 -13 7 -11 8 -6 3 14 -5 19 -3 27 4 22 6 -3 13 0 16 6 3 7 5 2 4 -12 -1 -28 11 -62 25 -72 13 -8 -16 -38 -37 -38 -9 0 -16 -4 -16 -10 0 -5 -16 -10 -35 -10 -30 0 -35 3 -35 24 0 21 4 23 34 19 19 -2 37 1 41 7 6 10 -6 14 -37 11 -10 -1 -18 4 -18 13 0 9 -4 16 -10 16 -5 0 -10 -6 -10 -14 0 -11 -13 -15 -50 -14 -34 1 -50 6 -50 15 0 7 -9 13 -19 13 -27 0 -35 29 -14 51 22 22 29 23 37 4z"/>
<path d="M2040 1896 c0 -9 -4 -16 -10 -16 -5 0 -10 -11 -10 -25 0 -22 -4 -25 -35 -25 -28 0 -35 -4 -35 -20 0 -15 -7 -20 -25 -20 -20 0 -25 5 -25 25 0 18 5 25 19 25 11 0 23 5 26 10 4 6 -10 10 -35 10 -25 0 -39 4 -35 10 4 6 -5 10 -19 10 -14 0 -26 -3 -26 -6 0 -10 28 -34 39 -34 6 0 11 -7 11 -15 0 -16 -26 -21 -32 -6 -1 5 -18 12 -35 16 -26 5 -33 3 -33 -9 0 -10 9 -16 25 -16 14 0 25 -4 25 -10 0 -5 9 -10 21 -10 22 0 49 -22 49 -39 0 -6 5 -11 10 -11 6 0 10 7 10 15 0 9 9 15 24 15 13 0 27 6 29 13 4 9 8 8 16 -3 5 -8 14 -11 18 -6 4 5 2 11 -4 13 -17 6 -17 23 0 23 36 0 74 78 47 95 -5 3 -10 -1 -10 -9z"/>
<path d="M2200 1860 c0 -11 7 -20 15 -20 8 0 15 9 15 20 0 11 -7 20 -15 20 -8 0 -15 -9 -15 -20z"/>
<path d="M2552 1865 c-7 -8 -24 -15 -38 -15 -13 0 -27 -6 -30 -14 -3 -8 -13 -12 -22 -9 -13 4 -14 3 -3 -5 15 -11 51 -4 51 9 0 5 16 9 35 9 28 0 35 4 35 20 0 23 -10 25 -28 5z"/>
<path d="M730 1829 c0 -17 4 -28 10 -24 6 3 10 17 10 31 0 13 -4 24 -10 24 -5 0 -10 -14 -10 -31z"/>
<path d="M1170 1835 c0 -20 5 -25 25 -25 16 0 25 6 25 15 0 8 -7 15 -15 15 -8 0 -15 5 -15 10 0 6 -4 10 -10 10 -5 0 -10 -11 -10 -25z"/>
<path d="M2600 1850 c0 -5 7 -10 15 -10 8 0 15 -7 15 -15 0 -8 5 -15 10 -15 6 0 10 11 10 25 0 20 -5 25 -25 25 -14 0 -25 -4 -25 -10z"/>
<path d="M2338 1818 c7 -7 12 -20 12 -30 0 -10 5 -18 10 -18 6 0 10 -7 10 -15 0 -15 -25 -21 -33 -7 -2 4 -2 0 1 -8 3 -8 7 -27 10 -42 2 -16 8 -28 13 -28 5 0 7 14 4 30 -4 22 -1 32 10 36 21 8 20 54 -1 54 -11 0 -15 6 -11 20 4 15 0 20 -16 20 -16 0 -18 -3 -9 -12z"/>
<path d="M920 1800 c0 -5 -7 -10 -15 -10 -8 0 -15 -6 -15 -13 0 -7 -9 -19 -20 -27 -24 -17 -26 -30 -4 -30 9 0 27 -11 40 -25 13 -14 30 -25 39 -25 8 0 15 -9 15 -20 0 -11 5 -20 10 -20 6 0 10 14 10 30 0 23 -4 30 -20 30 -11 0 -23 7 -26 15 -4 8 -15 15 -25 15 -10 0 -19 7 -19 15 0 8 9 15 20 15 11 0 20 5 20 10 0 6 -5 10 -11 10 -5 0 -7 5 -4 10 5 8 11 7 21 -1 10 -8 17 -7 29 4 22 22 19 27 -15 27 -16 0 -30 -4 -30 -10z"/>
<path d="M1703 1795 c-16 -17 -17 -35 -3 -35 6 0 10 7 10 15 0 21 17 19 25 -4 6 -21 -3 -51 -16 -51 -5 0 -9 -4 -9 -10 0 -5 12 -10 26 -10 23 0 25 3 22 32 -2 19 2 33 10 35 6 3 12 -1 12 -7 0 -14 25 -40 39 -40 6 0 11 -16 11 -35 0 -25 -4 -35 -16 -35 -10 0 -14 -6 -10 -15 3 -8 1 -15 -5 -15 -20 0 -39 -29 -39 -59 0 -21 -5 -31 -15 -31 -11 0 -15 11 -15 38 0 27 -3 33 -10 22 -14 -21 -12 -57 3 -64 10 -5 10 -7 0 -12 -7 -3 -13 -12 -13 -20 0 -8 -10 -14 -26 -14 -14 0 -23 -4 -19 -10 3 -5 -1 -10 -9 -10 -9 0 -16 -4 -16 -10 0 -14 13 -13 28 2 10 10 15 10 22 -1 7 -12 11 -12 24 2 9 8 16 25 16 36 0 12 6 21 15 21 11 0 15 -11 15 -36 0 -21 4 -33 10 -29 14 9 13 62 -2 67 -8 3 -8 9 0 24 6 10 12 13 12 7 0 -18 20 -16 20 2 0 8 -4 15 -10 15 -17 0 -11 26 10 45 10 9 26 15 35 12 11 -5 15 1 15 23 0 25 4 30 25 30 14 0 25 -4 25 -10 0 -5 16 -10 35 -10 19 0 35 -4 35 -9 0 -5 9 -11 20 -14 19 -5 19 -4 -2 19 -15 15 -34 24 -55 24 -23 0 -33 5 -33 16 0 8 -4 12 -10 9 -5 -3 -10 1 -10 9 0 9 -7 16 -15 16 -18 0 -20 17 -2 23 7 2 8 8 3 13 -5 5 -11 4 -13 -3 -3 -7 -16 -13 -29 -13 -19 0 -24 5 -24 25 0 18 -5 25 -20 25 -11 0 -20 5 -20 10 0 15 -43 11 -57 -5z"/>
<path d="M2530 1804 c0 -7 40 -44 47 -44 1 0 3 7 3 15 0 8 -7 15 -15 15 -8 0 -15 5 -15 10 0 6 -4 10 -10 10 -5 0 -10 -3 -10 -6z"/>
<path d="M2770 1774 c0 -21 4 -33 10 -29 6 4 10 -6 10 -22 0 -21 3 -24 9 -14 8 12 11 9 17 -14 4 -16 13 -40 20 -54 14 -27 10 -41 -12 -41 -8 0 -14 10 -14 25 0 14 -4 25 -10 25 -5 0 -10 9 -10 20 0 11 -4 20 -10 20 -5 0 -10 -4 -10 -10 0 -5 -7 -10 -15 -10 -18 0 -20 26 -2 33 8 3 5 11 -10 24 -13 11 -23 30 -23 42 0 19 -5 21 -57 21 -62 0 -64 -16 -3 -22 27 -2 36 -8 38 -25 2 -13 7 -23 12 -23 4 0 13 -13 19 -30 6 -19 17 -30 29 -30 26 0 36 -25 33 -82 -2 -32 1 -48 9 -48 8 0 9 10 5 30 -4 17 -2 30 3 30 13 0 42 -45 42 -65 0 -15 2 -15 15 -1 8 8 15 25 14 38 0 22 -1 22 -9 3 -7 -17 -9 -17 -9 -2 -1 9 -8 17 -17 17 -8 0 -12 5 -9 10 4 6 11 8 16 5 5 -4 9 12 9 34 0 31 -4 41 -16 41 -13 0 -15 8 -12 35 3 24 0 35 -9 35 -8 0 -13 13 -13 35 0 28 -4 35 -20 35 -16 0 -20 -7 -20 -36z"/>
<path d="M2840 1790 c0 -11 5 -20 10 -20 6 0 10 -11 10 -25 0 -14 5 -25 10 -25 6 0 10 -11 10 -25 0 -16 6 -25 15 -25 9 0 15 -9 15 -25 0 -14 5 -25 10 -25 6 0 10 11 10 25 0 14 5 25 10 25 6 0 10 7 10 16 0 8 -4 12 -10 9 -5 -3 -10 1 -10 9 0 9 -7 16 -16 16 -8 0 -12 5 -9 10 3 6 -1 10 -9 10 -10 0 -16 9 -16 21 0 19 -21 49 -34 49 -3 0 -6 -9 -6 -20z"/>
<path d="M1240 1760 c0 -15 -25 -40 -41 -40 -10 0 -10 -3 -1 -12 10 -10 15 -10 23 2 8 13 11 13 20 -3 6 -9 14 -15 20 -12 14 9 11 25 -6 25 -8 0 -15 5 -15 10 0 6 7 10 16 10 9 0 14 5 12 12 -6 16 -28 23 -28 8z"/>
<path d="M2204 1730 c1 -24 5 -30 24 -30 15 0 22 6 22 20 0 11 -7 20 -15 20 -8 0 -15 5 -15 10 0 6 -4 10 -9 10 -4 0 -8 -13 -7 -30z"/>
<path d="M1990 1718 c0 -15 -6 -28 -12 -31 -7 -2 -9 -8 -5 -13 4 -4 16 1 27 12 17 17 17 21 4 38 -13 19 -14 19 -14 -6z"/>
<path d="M2588 1729 c13 -5 34 -6 47 -3 20 5 23 3 18 -15 -3 -12 -1 -21 6 -21 6 0 11 11 11 25 0 24 -3 25 -52 24 -43 0 -49 -2 -30 -10z"/>
<path d="M820 1705 c0 -8 -9 -15 -20 -15 -11 0 -20 -5 -20 -12 0 -6 3 -8 7 -5 3 4 12 -1 19 -11 13 -16 13 -16 14 1 0 14 5 17 20 12 11 -4 20 -2 20 4 0 6 -4 11 -10 11 -5 0 -10 7 -10 15 0 8 -4 15 -10 15 -5 0 -10 -7 -10 -15z"/>
<path d="M1410 1701 c0 -6 -7 -11 -15 -11 -8 0 -15 -4 -15 -10 0 -5 11 -10 25 -10 25 0 35 23 15 35 -5 3 -10 1 -10 -4z"/>
<path d="M1080 1676 c0 -13 -6 -26 -12 -29 -7 -2 -10 -8 -6 -12 11 -11 38 21 38 44 0 12 -4 21 -10 21 -5 0 -10 -11 -10 -24z"/>
<path d="M1213 1675 c-7 -8 -13 -23 -13 -35 0 -15 -6 -20 -25 -20 -14 0 -25 -4 -25 -10 0 -5 6 -10 14 -10 8 0 17 -6 19 -12 3 -8 6 -6 6 5 1 9 8 17 16 17 10 0 15 10 15 30 0 17 5 30 10 30 6 0 10 5 10 10 0 14 -13 12 -27 -5z"/>
<path d="M1330 1670 c0 -11 7 -20 15 -20 8 0 15 9 15 20 0 11 -7 20 -15 20 -8 0 -15 -9 -15 -20z"/>
<path d="M1696 1674 c-10 -25 -7 -94 4 -94 6 0 10 25 10 55 0 57 -3 66 -14 39z"/>
<path d="M2510 1680 c0 -5 5 -10 10 -10 6 0 10 -9 10 -20 0 -11 5 -20 10 -20 15 0 12 29 -4 46 -17 16 -26 18 -26 4z"/>
<path d="M2135 1635 c3 -31 1 -35 -21 -35 -13 0 -24 -4 -24 -10 0 -5 -11 -10 -25 -10 -14 0 -25 -5 -25 -11 0 -29 -53 -52 -63 -26 -3 6 -6 -2 -6 -19 -1 -20 5 -34 15 -38 19 -7 37 2 29 15 -4 5 0 9 7 9 7 0 22 11 32 25 21 27 56 34 56 10 0 -8 5 -15 11 -15 7 0 9 11 6 26 -3 16 0 28 9 31 8 3 14 14 14 24 0 10 5 18 11 17 6 -2 14 3 16 10 3 6 -2 12 -11 12 -9 0 -16 5 -16 10 0 6 -4 10 -9 10 -5 0 -8 -16 -6 -35z"/>
<path d="M2332 1655 c-1 -12 -7 -26 -13 -32 -8 -8 -8 -13 1 -18 17 -11 22 -1 17 37 -2 18 -5 24 -5 13z"/>
<path d="M2460 1650 c0 -15 7 -20 27 -20 l27 0 -22 20 c-12 11 -24 20 -27 20 -3 0 -5 -9 -5 -20z"/>
<path d="M643 1632 c-7 -11 -8 -24 -2 -33 7 -11 11 -10 23 6 9 11 16 26 16 33 0 18 -24 14 -37 -6z"/>
<path d="M855 1640 c-3 -5 -1 -10 4 -10 6 0 11 -7 11 -15 0 -8 9 -15 20 -15 11 0 20 5 20 10 0 6 -4 10 -10 10 -5 0 -10 7 -10 15 0 17 -25 20 -35 5z"/>
<path d="M1270 1640 c0 -5 5 -10 10 -10 6 0 10 -7 10 -15 0 -10 -11 -15 -37 -16 -37 -1 -37 -2 -8 -8 37 -9 65 7 65 36 0 16 -6 23 -20 23 -11 0 -20 -4 -20 -10z"/>
<path d="M2410 1625 c0 -16 6 -25 15 -25 8 0 15 -4 15 -10 0 -5 -7 -10 -16 -10 -9 0 -14 -5 -12 -12 6 -18 28 -21 28 -4 0 11 9 16 31 16 31 0 67 25 54 38 -4 4 -10 1 -12 -5 -3 -7 -20 -13 -39 -13 -30 0 -34 3 -34 25 0 16 -6 25 -15 25 -9 0 -15 -9 -15 -25z"/>
<path d="M800 1599 c0 -16 -4 -28 -9 -24 -5 3 -12 1 -16 -5 -3 -5 1 -10 9 -10 10 0 16 -9 16 -21 0 -19 21 -49 34 -49 3 0 6 9 6 20 0 11 -4 20 -10 20 -5 0 -10 23 -10 50 0 28 -4 50 -10 50 -5 0 -10 -14 -10 -31z"/>
<path d="M1383 1623 c-24 -2 -43 -9 -43 -15 0 -6 10 -8 26 -4 18 5 32 2 45 -10 18 -16 19 -16 19 9 0 15 -1 26 -2 25 -2 -1 -22 -3 -45 -5z"/>
<path d="M1593 1614 c-7 -18 11 -39 25 -30 12 7 4 46 -9 46 -6 0 -12 -7 -16 -16z"/>
<path d="M2575 1606 c-23 -30 -25 -48 -7 -53 6 -3 12 2 12 11 0 9 8 16 19 16 11 0 23 5 26 10 3 6 -1 10 -9 10 -8 0 -16 7 -18 16 -2 14 -7 12 -23 -10z"/>
<path d="M940 1586 c0 -29 3 -33 20 -29 23 6 26 28 6 49 -22 21 -26 18 -26 -20z"/>
<path d="M1080 1596 c0 -23 -3 -24 -35 -19 -28 4 -35 2 -35 -10 0 -11 5 -14 16 -10 10 4 22 -1 29 -11 11 -15 13 -15 19 -1 3 9 14 15 23 14 35 -3 54 1 48 11 -4 6 -15 8 -26 5 -15 -5 -19 -1 -19 19 0 14 -4 26 -10 26 -5 0 -10 -11 -10 -24z"/>
<path d="M1500 1565 c0 -19 5 -35 10 -35 6 0 10 11 10 23 0 33 10 40 32 20 17 -15 18 -15 18 5 0 18 -6 22 -35 22 -33 0 -35 -2 -35 -35z"/>
<path d="M1850 1585 c0 -9 9 -15 25 -15 32 0 50 -32 37 -68 -5 -15 -6 -36 -1 -47 6 -15 8 -11 8 18 1 27 5 37 17 37 11 0 14 5 10 16 -3 9 -6 25 -7 37 0 21 -1 21 -9 2 -8 -19 -9 -19 -9 2 -1 12 5 24 12 26 6 3 -9 6 -35 6 -36 1 -48 -3 -48 -14z"/>
<path d="M2248 1588 c-4 -11 -15 -13 -75 -17 -9 -1 -13 -19 -13 -56 0 -42 -3 -55 -15 -55 -8 0 -15 5 -15 10 0 6 -4 10 -10 10 -5 0 -10 -11 -10 -25 0 -23 2 -24 21 -15 17 10 21 8 26 -9 11 -45 23 -18 23 54 l0 75 30 0 c17 0 40 9 52 20 18 16 19 20 6 20 -9 0 -18 -5 -20 -12z"/>
<path d="M2677 1576 c4 -17 10 -22 24 -19 23 6 25 23 3 23 -8 0 -12 5 -9 10 3 6 0 10 -8 10 -10 0 -13 -8 -10 -24z"/>
<path d="M588 1548 c-6 -38 1 -70 13 -62 5 3 9 -2 9 -10 0 -9 7 -16 15 -16 8 0 15 4 15 9 0 5 -7 11 -15 15 -17 6 -21 42 -5 48 14 4 0 48 -15 48 -7 0 -15 -14 -17 -32z"/>
<path d="M723 1554 c-25 -31 -29 -44 -13 -44 6 0 10 5 10 10 0 6 7 10 15 10 8 0 15 -4 15 -10 0 -5 -4 -10 -10 -10 -5 0 -10 -16 -10 -35 0 -19 5 -35 10 -35 6 0 10 5 10 10 0 16 13 12 44 -15 16 -13 33 -22 39 -18 5 3 3 10 -7 15 -11 6 -15 16 -11 29 4 11 2 19 -4 19 -6 0 -11 -4 -11 -10 0 -15 -19 -12 -36 4 -17 18 -18 33 -1 39 9 4 9 8 1 14 -7 4 -14 19 -15 31 l-4 24 -22 -28z"/>
<path d="M2626 1572 c-5 -8 28 -42 39 -42 10 0 4 22 -9 36 -17 16 -23 17 -30 6z"/>
<path d="M2310 1563 c0 -6 8 -21 18 -34 20 -26 25 -59 9 -59 -6 0 0 -8 11 -19 26 -22 27 -28 7 -48 -18 -18 -11 -33 16 -33 21 0 26 15 7 24 -10 5 -10 7 0 12 14 7 16 31 2 36 -5 2 -13 18 -16 37 -6 29 -5 33 9 28 11 -4 17 -1 17 8 0 9 -9 15 -21 15 -12 0 -30 10 -40 22 -11 11 -19 16 -19 11z"/>
<path d="M2510 1544 c0 -8 -8 -14 -17 -14 -14 0 -15 -2 -4 -12 11 -10 14 -10 18 0 3 6 13 12 24 12 25 0 24 16 -1 23 -13 3 -20 0 -20 -9z"/>
<path d="M913 1510 c1 -14 8 -20 24 -20 14 0 23 -6 23 -15 0 -11 -12 -15 -51 -15 -31 0 -48 4 -44 10 10 15 -5 12 -22 -6 -14 -14 -14 -16 6 -21 21 -5 30 -33 10 -33 -5 0 -7 -4 -4 -10 12 -20 35 -10 35 15 0 22 4 25 35 25 19 0 35 5 35 10 0 14 27 12 33 -2 3 -8 6 -6 6 5 1 11 9 17 26 17 14 0 25 5 25 10 0 6 8 10 18 11 14 0 14 2 -3 9 -13 5 -24 3 -31 -6 -15 -19 -54 -18 -54 1 0 8 7 15 15 15 8 0 15 5 15 10 0 6 -11 10 -25 10 -16 0 -25 -6 -25 -15 0 -8 -4 -15 -10 -15 -5 0 -10 7 -10 15 0 8 -6 15 -14 15 -9 0 -14 -9 -13 -20z"/>
<path d="M2690 1524 c0 -4 14 -20 31 -36 23 -22 34 -27 42 -19 8 8 6 11 -6 11 -9 0 -17 5 -17 11 0 6 -6 17 -14 25 -15 14 -36 19 -36 8z"/>
<path d="M149 1505 c-14 -21 -10 -171 6 -214 8 -24 15 -58 16 -75 0 -26 2 -28 9 -11 5 11 9 37 9 59 1 30 -2 37 -14 33 -12 -5 -15 12 -17 106 -2 62 -6 108 -9 102z"/>
<path d="M666 1502 c-4 -7 -5 -16 -2 -19 3 -3 -2 -12 -12 -20 -12 -10 -14 -16 -4 -19 18 -8 15 -54 -3 -54 -8 0 -15 -4 -15 -10 0 -5 7 -10 15 -10 8 0 15 5 15 10 0 6 7 10 16 10 8 0 12 -4 9 -10 -3 -5 -1 -10 4 -10 6 0 11 9 11 20 0 11 -4 20 -9 20 -6 0 -11 24 -13 53 -2 33 -6 47 -12 39z"/>
<path d="M2650 1494 c0 -13 -8 -15 -35 -12 -38 4 -44 -5 -18 -30 12 -12 18 -13 21 -4 4 14 32 16 32 2 0 -5 8 -10 18 -10 15 1 15 2 -3 16 -14 11 -16 18 -7 21 14 6 16 33 2 33 -5 0 -10 -7 -10 -16z"/>
<path d="M2890 1485 c19 -21 21 -25 7 -25 -9 0 -17 5 -17 10 0 6 -9 10 -20 10 -13 0 -20 -7 -20 -20 0 -20 21 -26 73 -21 12 2 17 -5 17 -23 0 -13 -5 -26 -12 -28 -9 -3 -9 -6 0 -12 7 -4 12 -2 12 3 0 6 7 11 15 11 19 0 20 -19 1 -26 -8 -3 -12 -12 -9 -20 4 -11 9 -12 19 -3 8 6 14 18 14 25 0 8 8 14 18 15 16 0 16 1 -1 8 -10 4 -19 11 -20 16 -1 6 -5 9 -9 8 -5 -2 -8 8 -8 22 0 14 -4 25 -10 25 -5 0 -11 12 -11 28 -1 16 -3 20 -6 10 -2 -10 -8 -18 -13 -18 -5 0 -7 7 -4 15 4 11 -1 15 -17 15 l-22 0 23 -25z"/>
<path d="M2067 1487 c-5 -13 -13 -16 -27 -12 -24 8 -26 -1 -5 -21 13 -14 17 -14 31 0 8 9 14 24 12 34 -3 16 -4 16 -11 -1z"/>
<path d="M570 1450 c0 -5 5 -10 10 -10 6 0 10 -27 10 -60 0 -45 3 -60 14 -60 11 0 13 7 7 28 -5 15 -6 41 -4 57 3 22 -1 33 -16 43 -13 7 -21 8 -21 2z"/>
<path d="M2548 1439 c-16 -17 -16 -18 3 -24 26 -9 35 0 23 23 -9 18 -10 18 -26 1z"/>
<path d="M2694 1444 c3 -9 6 -20 6 -25 0 -5 5 -9 10 -9 6 0 10 11 10 25 0 16 -6 25 -16 25 -11 0 -14 -5 -10 -16z"/>
<path d="M2753 1445 c-16 -17 -17 -35 -3 -35 6 0 10 7 10 15 0 8 7 15 15 15 8 0 15 -5 15 -11 0 -14 -25 -39 -39 -39 -20 0 -12 -38 9 -43 22 -6 26 3 9 20 -8 8 -7 13 1 18 7 4 16 1 21 -6 8 -12 11 -12 19 1 7 12 12 12 22 2 9 -9 9 -12 0 -12 -7 0 -12 -7 -12 -15 0 -8 -7 -15 -15 -15 -8 0 -15 -4 -15 -10 0 -17 28 -11 43 10 8 11 17 17 20 13 4 -3 7 3 7 15 0 11 6 22 13 25 6 2 8 8 4 13 -4 5 -13 2 -18 -6 -8 -11 -12 -12 -16 -2 -2 6 -11 12 -19 12 -8 0 -14 5 -14 11 0 13 -25 39 -37 39 -4 -1 -14 -7 -20 -15z"/>
<path d="M2303 1433 c-4 -10 -15 -24 -25 -31 -10 -7 -17 -23 -17 -35 l2 -22 4 23 c3 15 11 22 29 22 20 0 24 5 24 30 0 34 -7 39 -17 13z"/>
<path d="M1481 1412 c1 -17 3 -21 6 -9 5 19 8 19 76 17 26 -1 47 2 47 7 0 5 -29 9 -65 10 -64 2 -65 1 -64 -25z"/>
<path d="M1935 1413 c3 -16 13 -41 21 -57 8 -16 14 -46 14 -67 0 -45 25 -76 46 -58 8 6 21 9 29 5 8 -3 15 -1 15 4 0 6 -4 10 -10 10 -5 0 -10 11 -10 25 0 14 -4 25 -10 25 -5 0 -10 -11 -10 -25 0 -16 -6 -25 -15 -25 -11 0 -15 12 -15 45 0 25 -4 45 -10 45 -5 0 -10 23 -10 50 0 44 -2 50 -21 50 -18 0 -20 -4 -14 -27z"/>
<path d="M2440 1427 c0 -16 41 -37 70 -37 11 0 20 5 20 10 0 6 -16 10 -35 10 -24 0 -35 5 -35 15 0 8 -4 15 -10 15 -5 0 -10 -6 -10 -13z"/>
<path d="M540 1401 c0 -16 -5 -31 -10 -33 -6 -2 -12 -13 -13 -26 0 -12 -7 -22 -14 -22 -7 0 -13 -4 -13 -10 0 -5 4 -10 10 -10 5 0 12 -16 16 -35 3 -19 11 -35 16 -35 6 0 8 7 4 15 -6 17 8 61 18 58 14 -6 26 -2 26 7 0 6 -9 10 -20 10 -15 0 -20 7 -20 25 0 14 5 25 10 25 6 0 10 14 10 30 0 17 -4 30 -10 30 -5 0 -10 -13 -10 -29z"/>
<path d="M960 1410 c0 -15 -7 -20 -27 -20 -25 -1 -26 -2 -10 -14 9 -7 17 -18 17 -25 0 -15 -27 -14 -33 2 -2 6 -8 9 -12 5 -11 -11 21 -38 44 -38 15 0 21 6 21 21 0 12 9 30 21 40 19 16 20 20 6 34 -21 20 -27 19 -27 -5z"/>
<path d="M1420 1393 c-10 -12 -11 -18 -2 -21 7 -2 12 -10 12 -18 0 -8 5 -14 10 -14 14 0 12 27 -2 34 -10 5 -10 7 0 12 13 6 17 24 5 24 -5 -1 -15 -8 -23 -17z"/>
<path d="M1990 1380 c0 -18 6 -33 15 -36 8 -4 12 -10 9 -15 -3 -5 2 -9 10 -9 9 0 17 8 17 18 1 9 5 1 9 -18 l7 -35 2 43 c0 27 -3 41 -9 37 -5 -3 -10 1 -10 9 0 9 -7 16 -16 16 -8 0 -12 5 -9 10 3 6 -1 10 -9 10 -11 0 -16 -10 -16 -30z"/>
<path d="M813 1393 c-15 -6 -18 -93 -3 -93 6 0 10 16 10 35 0 40 26 50 33 13 3 -16 5 -13 6 11 1 25 -2 32 -13 28 -8 -3 -16 -2 -18 2 -2 4 -9 6 -15 4z"/>
<path d="M2132 1368 c2 -13 8 -23 13 -23 6 0 11 10 13 23 2 15 -2 22 -13 22 -11 0 -15 -7 -13 -22z"/>
<path d="M720 1359 c-16 -4 -19 -7 -7 -8 9 -1 26 -10 37 -21 16 -16 20 -17 20 -5 0 8 -4 15 -9 15 -5 0 -11 6 -13 13 -2 9 -11 11 -28 6z"/>
<path d="M2180 1355 c0 -8 -4 -15 -10 -15 -5 0 -10 -9 -10 -20 0 -11 5 -20 10 -20 6 0 10 9 10 20 0 11 5 20 10 20 6 0 10 7 10 15 0 8 -4 15 -10 15 -5 0 -10 -7 -10 -15z"/>
<path d="M2320 1355 c0 -10 -10 -15 -27 -15 -31 0 -23 -12 10 -15 18 -2 22 -8 20 -34 -1 -25 -12 -43 -47 -74 -26 -24 -46 -53 -48 -67 -2 -19 -11 -26 -33 -31 -23 -5 -25 -7 -8 -8 13 0 22 -4 20 -8 -1 -5 3 -8 8 -8 6 0 9 3 8 8 -2 4 4 7 12 7 10 0 15 11 15 35 0 19 5 35 10 35 6 0 10 7 10 16 0 11 5 14 16 10 9 -3 18 -6 20 -6 3 0 2 -4 -1 -10 -3 -5 -1 -10 4 -10 6 0 11 16 11 35 0 25 4 35 16 35 8 0 12 -4 9 -10 -3 -5 1 -10 9 -10 9 0 16 9 16 20 0 11 -7 20 -15 20 -11 0 -15 12 -15 50 0 28 -4 50 -10 50 -5 0 -10 -7 -10 -15z"/>
<path d="M2670 1346 c0 -15 6 -26 13 -26 17 0 15 42 -1 48 -7 2 -12 -7 -12 -22z"/>
<path d="M1247 1344 c-12 -12 -8 -24 8 -24 8 0 15 -4 15 -10 0 -5 9 -10 20 -10 11 0 20 5 20 10 0 6 -7 10 -16 10 -9 0 -22 7 -28 16 -6 8 -15 12 -19 8z"/>
<path d="M2486 1318 c13 -43 44 -65 44 -32 0 10 -6 14 -14 11 -11 -4 -13 1 -10 19 3 17 0 24 -11 24 -12 0 -15 -6 -9 -22z"/>
<path d="M449 1313 c-1 -5 0 -20 1 -35 1 -20 -3 -28 -14 -28 -9 0 -16 8 -16 17 0 14 -2 15 -12 4 -10 -11 -10 -14 0 -18 7 -3 12 -23 12 -49 0 -24 5 -44 10 -44 6 0 10 14 10 30 0 18 6 33 15 36 17 7 22 94 5 94 -5 0 -10 -3 -11 -7z"/>
<path d="M2630 1305 c0 -8 -8 -15 -17 -16 -15 0 -15 -2 2 -9 31 -13 35 -12 35 15 0 14 -4 25 -10 25 -5 0 -10 -7 -10 -15z"/>
<path d="M2740 1304 c0 -8 -4 -12 -10 -9 -5 3 -10 -1 -10 -9 0 -9 -5 -16 -11 -16 -16 0 -43 -30 -34 -38 4 -4 10 -1 12 6 3 6 10 12 16 12 7 0 21 11 31 25 10 14 25 25 33 25 8 0 11 5 8 10 -10 16 -35 12 -35 -6z"/>
<path d="M2841 1313 c1 -5 1 -16 0 -25 -1 -21 -37 -25 -44 -5 -3 6 -6 2 -6 -10 -1 -12 -7 -23 -13 -26 -8 -2 -9 -8 -4 -13 5 -5 11 -4 13 4 3 6 16 12 29 12 19 0 24 -5 24 -27 l0 -27 20 22 c12 13 20 34 19 54 0 28 -2 30 -9 13 -8 -18 -9 -17 -9 8 -1 15 -5 27 -11 27 -5 0 -9 -3 -9 -7z"/>
<path d="M2955 1285 c-16 -19 -38 -34 -47 -35 -10 0 -17 -3 -16 -7 1 -5 -3 -18 -10 -30 -7 -12 -8 -24 -4 -27 5 -3 9 -25 9 -50 1 -36 -5 -51 -24 -71 -24 -24 -25 -25 -5 -25 11 0 22 -6 25 -12 10 -30 19 8 21 89 1 63 5 87 14 86 7 -2 12 8 12 21 0 18 6 25 23 28 14 2 23 11 25 26 2 12 8 22 13 22 5 0 9 5 9 10 0 18 -15 10 -45 -25z"/>
<path d="M1481 1283 c-1 -18 4 -33 10 -33 7 0 9 -11 6 -26 -4 -24 -2 -26 24 -20 20 4 29 1 29 -7 0 -7 9 -19 20 -27 11 -8 20 -20 20 -27 0 -7 5 -13 10 -13 6 0 24 -13 41 -30 24 -22 30 -36 27 -55 -4 -17 -1 -25 8 -25 10 0 14 -14 14 -50 0 -27 5 -50 10 -50 15 0 12 -67 -2 -74 -10 -5 -10 -7 0 -12 8 -4 12 -30 12 -80 0 -69 12 -96 26 -59 4 9 19 15 35 15 16 0 29 5 29 11 0 7 -11 9 -30 6 -28 -6 -30 -5 -32 26 -4 96 -4 123 3 127 5 3 2 18 -5 32 -10 18 -11 29 -3 37 7 7 5 12 -6 17 -24 9 -21 24 4 24 19 0 19 1 5 22 -9 12 -16 31 -16 41 0 17 -56 77 -72 77 -17 0 -8 49 10 53 9 2 0 2 -21 0 -33 -4 -39 -2 -44 16 -6 22 -23 29 -23 9 0 -9 -3 -9 -12 1 -7 6 -13 17 -13 24 0 7 -10 13 -21 15 -14 2 -25 14 -32 35 l-10 32 -1 -32z"/>
<path d="M1384 1287 c-3 -9 -13 -13 -25 -10 -11 3 -19 0 -19 -6 0 -8 -11 -10 -32 -6 -24 4 -42 0 -63 -15 l-30 -20 28 0 c16 0 26 4 22 10 -4 6 18 10 60 10 42 0 64 -4 60 -10 -3 -5 1 -10 9 -10 9 0 16 -8 17 -17 0 -15 2 -15 9 2 6 15 3 24 -11 35 -14 11 -17 18 -8 27 8 8 8 13 0 18 -6 3 -14 0 -17 -8z"/>
<path d="M2092 1250 c2 -40 18 -58 18 -21 0 11 6 21 12 23 9 3 8 9 -4 21 -25 25 -29 21 -26 -23z"/>
<path d="M1073 1255 c-18 -20 -16 -23 10 -27 12 -2 22 -7 22 -13 0 -5 -10 -11 -22 -13 -17 -3 -23 -10 -24 -30 -3 -59 4 -71 26 -49 18 18 20 38 4 35 -6 -2 -14 3 -16 10 -7 17 45 16 63 -2 8 -8 14 -17 14 -21 0 -10 28 -35 39 -35 6 0 11 -7 11 -16 0 -8 5 -12 10 -9 6 3 10 1 10 -5 0 -13 25 -40 37 -40 5 0 9 -9 10 -20 2 -30 28 -50 62 -50 l31 0 0 70 c0 57 -3 70 -16 70 -8 0 -12 5 -9 10 3 6 -1 10 -9 10 -10 0 -16 9 -16 25 0 21 -5 25 -30 25 -16 0 -30 -4 -30 -10 0 -5 8 -10 18 -10 19 0 48 -37 44 -57 -1 -6 2 -14 8 -18 13 -8 13 -45 0 -45 -5 0 -10 -7 -10 -15 0 -8 5 -15 12 -15 6 0 9 -2 6 -5 -9 -9 -38 6 -38 20 0 6 -9 20 -19 29 -11 10 -17 25 -14 37 3 10 0 19 -6 19 -6 0 -11 -5 -11 -11 0 -11 -91 85 -98 102 -2 5 4 9 13 9 12 0 16 6 12 20 -3 12 1 24 11 30 15 8 14 9 -5 10 -18 0 -23 -6 -23 -24 0 -13 -7 -26 -15 -30 -9 -3 -15 0 -15 10 0 13 -23 45 -32 44 -2 -1 -9 -7 -15 -15z"/>
<path d="M2580 1260 c0 -5 5 -10 10 -10 6 0 10 -11 10 -25 0 -14 5 -25 10 -25 15 0 12 39 -4 56 -17 16 -26 18 -26 4z"/>
<path d="M655 1240 c-3 -5 1 -10 9 -10 9 0 16 -7 16 -15 0 -8 6 -15 14 -15 9 0 13 -7 11 -20 -3 -13 2 -20 12 -20 11 0 14 -7 11 -25 -4 -17 -1 -25 8 -25 8 0 14 -7 14 -15 0 -8 6 -14 12 -13 8 2 12 -7 10 -24 -5 -45 9 -54 26 -17 9 23 16 29 20 20 3 -8 0 -17 -6 -19 -7 -2 -12 -13 -12 -24 0 -10 -7 -26 -15 -34 -8 -9 -15 -22 -15 -30 0 -8 7 -14 15 -14 22 0 21 -105 -1 -114 -8 -3 -12 -10 -9 -16 4 -6 11 -8 16 -5 5 4 9 -8 9 -24 0 -20 -5 -31 -14 -31 -9 0 -13 -7 -11 -20 3 -16 -2 -20 -21 -20 -40 0 -54 22 -54 84 0 31 -4 56 -10 56 -5 0 -10 14 -10 32 0 24 -3 29 -12 20 -6 -6 -10 -32 -10 -57 2 -35 -1 -45 -14 -45 -8 0 -12 -4 -9 -10 3 -5 -1 -10 -9 -10 -12 0 -16 10 -16 35 0 19 5 35 10 35 6 0 10 6 10 14 0 9 -7 12 -20 9 -16 -4 -20 -14 -20 -49 0 -34 -4 -44 -16 -44 -12 0 -15 -6 -11 -21 3 -12 0 -22 -9 -26 -21 -8 -17 -33 11 -59 28 -26 32 -52 10 -60 -13 -5 -13 -8 0 -21 19 -19 19 -53 0 -53 -8 0 -15 -7 -15 -16 0 -8 5 -12 10 -9 6 3 10 1 10 -4 0 -6 -4 -11 -10 -11 -5 0 -10 -7 -10 -15 0 -8 7 -15 15 -15 11 0 15 -11 15 -36 0 -21 4 -33 10 -29 6 4 10 -7 10 -24 0 -17 5 -31 10 -31 6 0 10 -9 10 -20 0 -11 7 -20 15 -20 9 0 15 9 15 25 0 16 -6 25 -15 25 -12 0 -15 16 -15 83 0 56 -3 77 -10 67 -7 -10 -10 18 -10 88 0 78 -4 107 -15 118 -27 28 -18 44 25 44 l40 0 2 -52 1 -53 7 55 c7 55 7 55 8 -22 1 -47 -2 -78 -8 -78 -5 0 -10 -13 -10 -30 0 -16 4 -30 10 -30 5 0 11 -24 13 -52 2 -29 3 -16 1 28 -1 45 0 85 4 89 7 7 8 12 11 72 1 31 1 32 29 17 38 -19 40 -19 65 23 16 28 23 33 25 20 2 -9 8 -15 13 -11 5 3 12 -2 15 -10 7 -17 44 -22 44 -6 0 6 -4 10 -9 10 -5 0 -11 11 -13 25 -4 17 -1 25 8 25 8 0 14 11 14 25 0 15 6 25 14 25 11 0 13 9 9 35 -4 28 -2 35 11 35 9 0 16 -8 16 -17 0 -9 3 -13 7 -10 10 11 33 -43 33 -79 0 -18 -4 -36 -10 -39 -5 -3 -10 -31 -10 -61 0 -30 -4 -54 -10 -54 -5 0 -10 5 -10 10 0 6 -7 10 -15 10 -8 0 -15 7 -15 15 0 8 -4 15 -10 15 -5 0 -10 -22 -10 -50 0 -35 -4 -50 -14 -50 -9 0 -13 13 -11 45 1 32 -2 45 -12 45 -7 0 -13 7 -13 15 0 8 -4 15 -10 15 -5 0 -10 -11 -10 -25 0 -14 -4 -25 -10 -25 -5 0 -10 -14 -10 -31 0 -17 -7 -37 -15 -45 -8 -9 -15 -31 -15 -50 0 -24 5 -34 15 -34 9 0 15 -9 15 -25 0 -20 -5 -25 -25 -25 -16 0 -25 6 -25 16 0 8 -5 12 -10 9 -6 -3 -10 1 -10 9 0 9 -7 16 -15 16 -13 0 -15 -13 -13 -70 1 -50 6 -70 15 -70 7 0 13 -7 13 -15 0 -8 -5 -15 -11 -15 -6 0 -9 -6 -6 -14 4 -10 0 -12 -14 -9 -24 7 -24 -2 1 -29 17 -19 20 -19 20 -5 0 9 7 17 15 17 9 0 15 10 15 26 0 14 4 23 10 19 6 -3 10 1 10 9 0 9 -8 16 -19 16 -10 0 -22 7 -25 16 -7 19 2 37 15 29 5 -4 9 1 9 9 0 9 8 16 19 16 11 0 23 5 26 10 8 13 55 13 55 0 0 -5 -11 -10 -25 -10 -16 0 -25 -6 -25 -15 0 -8 -7 -15 -16 -15 -8 0 -12 -5 -9 -10 10 -16 45 -12 45 5 0 9 9 15 25 15 21 0 25 5 25 30 0 28 -11 36 -42 31 -5 0 -8 13 -8 30 0 17 4 28 10 24 6 -3 10 4 10 17 0 16 -3 19 -9 10 -6 -11 -12 -10 -26 4 -16 16 -16 19 -1 29 9 7 16 17 16 24 0 6 5 11 10 11 6 0 10 -6 10 -14 0 -8 7 -16 15 -20 8 -3 15 -15 15 -26 0 -22 1 -23 24 -14 9 4 16 18 16 34 0 21 6 31 22 36 30 9 48 29 48 52 0 11 8 22 19 25 15 3 17 0 13 -16 -4 -16 -1 -19 11 -14 9 3 18 1 21 -6 2 -7 5 -4 5 6 1 9 -3 17 -9 17 -5 0 -10 7 -10 15 0 8 -4 15 -10 15 -6 0 -10 35 -10 86 0 54 4 83 10 79 6 -3 10 1 10 10 0 9 -4 13 -10 10 -6 -4 -10 10 -10 34 0 23 5 41 10 41 6 0 10 16 10 35 0 31 3 35 25 35 14 0 25 5 25 10 0 6 -7 10 -15 10 -9 0 -15 10 -15 26 0 14 -4 23 -10 19 -6 -3 -7 -17 -4 -30 3 -12 1 -26 -5 -29 -6 -4 -11 -15 -11 -25 0 -14 -6 -17 -30 -13 -18 3 -30 0 -30 -7 0 -6 11 -11 25 -11 14 0 25 -4 25 -10 0 -5 -7 -10 -15 -10 -18 0 -20 -26 -2 -33 9 -4 9 -8 -1 -15 -8 -5 -13 -13 -12 -18 1 -5 -3 -10 -9 -12 -6 -2 -11 3 -11 12 0 10 -8 16 -21 16 -19 0 -49 21 -49 35 0 10 -27 35 -38 35 -5 0 -7 -43 -5 -96 2 -73 0 -95 -9 -92 -19 6 -23 178 -6 190 10 8 10 11 1 15 -19 7 -16 27 7 43 28 20 25 30 -10 30 -32 0 -80 40 -80 65 0 7 -7 15 -15 19 -8 3 -15 17 -15 31 0 14 -4 25 -10 25 -5 0 -10 7 -10 15 0 17 -35 21 -45 5z m233 -355 c-4 -71 -19 -71 -21 0 -2 39 2 55 11 55 9 0 12 -15 10 -55z"/>
<path d="M1443 1235 c-18 -20 -16 -43 6 -66 13 -14 21 -17 26 -9 4 6 -1 18 -11 25 -18 13 -18 14 -1 15 18 0 21 8 11 34 -7 19 -15 20 -31 1z"/>
<path d="M2530 1225 c0 -30 16 -33 23 -4 4 13 10 18 18 13 8 -4 10 -3 5 4 -4 7 -16 12 -27 12 -14 0 -19 -7 -19 -25z"/>
<path d="M2147 1202 c1 -8 3 -16 3 -18 0 -2 5 -4 11 -4 16 0 43 30 34 38 -4 4 -10 1 -12 -5 -5 -14 -29 -18 -36 -5 -2 4 -2 1 0 -6z"/>
<path d="M2783 1205 c-18 -20 -16 -25 10 -25 16 0 23 6 23 20 0 23 -16 25 -33 5z"/>
<path d="M210 1185 c0 -8 -6 -15 -12 -15 -7 0 -5 -5 5 -11 14 -8 17 -18 12 -40 -4 -17 -2 -29 3 -29 6 0 12 25 14 55 2 39 -1 55 -9 55 -7 0 -13 -7 -13 -15z"/>
<path d="M1387 1180 c-3 -13 2 -19 19 -23 29 -5 31 3 5 25 -18 15 -19 15 -24 -2z"/>
<path d="M2390 1145 c0 -19 -4 -35 -10 -35 -5 0 -10 -7 -10 -15 0 -8 5 -15 10 -15 6 0 10 7 10 15 0 8 7 15 16 15 8 0 12 5 9 10 -3 6 1 10 9 10 21 0 20 6 -4 30 -27 27 -30 26 -30 -15z"/>
<path d="M2840 1171 c0 -6 5 -11 10 -11 6 0 10 -11 10 -25 0 -14 -4 -25 -10 -25 -5 0 -10 -7 -10 -15 0 -9 -6 -12 -17 -8 -12 5 -15 2 -10 -10 4 -11 1 -17 -8 -17 -8 0 -15 -4 -15 -9 0 -5 -10 -11 -22 -15 -33 -9 -6 -24 33 -18 20 3 28 9 25 18 -3 7 8 30 23 51 19 27 25 45 21 62 -6 25 -30 42 -30 22z"/>
<path d="M2921 1169 c-1 -21 16 -35 54 -45 28 -7 29 -6 13 9 -9 9 -26 17 -37 17 -11 0 -22 8 -24 18 -4 14 -5 14 -6 1z"/>
<path d="M2303 1150 c-12 -29 -7 -44 13 -36 17 7 17 5 -1 -30 -22 -42 -20 -74 5 -74 11 0 20 7 20 15 0 8 -4 15 -10 15 -18 0 -10 45 10 60 25 18 26 30 1 30 -12 0 -21 8 -24 23 -4 22 -4 22 -14 -3z"/>
<path d="M50 1134 c0 -13 5 -24 10 -24 6 0 11 -28 12 -62 0 -35 3 -48 5 -30 4 29 23 47 23 21 0 -5 4 -7 10 -4 15 9 12 25 -5 25 -11 0 -15 12 -15 44 0 35 -4 45 -20 49 -16 4 -20 0 -20 -19z"/>
<path d="M370 1123 c-8 -21 -13 -42 -12 -47 2 -4 -1 -13 -6 -20 -14 -17 -21 -78 -11 -101 5 -14 8 -15 8 -4 1 8 13 20 29 26 l27 11 -27 1 c-23 1 -28 6 -28 26 0 20 5 25 25 25 14 0 25 5 25 10 0 6 -7 10 -15 10 -10 0 -14 9 -13 25 1 14 6 25 11 25 5 0 16 7 24 16 14 13 14 17 2 25 -22 13 -24 12 -39 -28z"/>
<path d="M2580 1148 c0 -20 -26 -25 -32 -7 -2 6 -4 -9 -4 -32 -1 -24 1 -34 3 -21 5 24 33 31 33 7 0 -8 5 -15 10 -15 13 0 13 50 0 70 -8 13 -10 12 -10 -2z"/>
<path d="M2650 1148 c0 -10 4 -18 9 -18 5 0 11 -9 13 -20 4 -25 21 -27 24 -3 2 10 8 19 13 21 14 5 14 32 1 32 -5 0 -10 -7 -10 -15 0 -20 -20 -19 -36 3 -13 16 -13 16 -14 0z"/>
<path d="M450 1138 c0 -6 -7 -20 -17 -30 -15 -17 -15 -18 1 -18 9 0 14 5 11 10 -3 6 1 10 9 10 12 0 16 -10 16 -35 0 -19 3 -35 6 -35 13 0 34 30 34 49 0 31 28 25 33 -6 4 -27 4 -27 6 3 1 31 -22 54 -34 34 -12 -19 -45 -11 -45 10 0 11 -4 20 -10 20 -5 0 -10 -5 -10 -12z"/>
<path d="M1480 1110 c0 -20 -5 -30 -15 -30 -8 0 -15 -4 -15 -9 0 -5 -15 -12 -32 -16 l-33 -8 30 -5 c16 -2 31 1 33 7 2 6 10 11 18 11 8 0 14 5 14 10 0 6 5 10 10 10 6 0 10 -20 10 -45 0 -34 4 -45 16 -45 8 0 12 5 9 10 -3 6 -1 10 4 10 6 0 11 -4 11 -10 0 -5 6 -10 14 -10 8 0 16 -6 19 -12 2 -8 8 -9 13 -4 5 5 4 11 -3 13 -15 5 -17 33 -3 33 6 0 10 5 10 12 0 9 -3 9 -12 0 -20 -20 -28 -14 -28 23 0 31 -3 35 -25 35 -20 0 -25 5 -25 25 0 14 -4 25 -10 25 -5 0 -10 -13 -10 -30z"/>
<path d="M840 1120 c0 -5 7 -10 15 -10 8 0 15 -4 15 -10 0 -5 5 -10 10 -10 6 0 10 9 10 20 0 15 -7 20 -25 20 -14 0 -25 -4 -25 -10z"/>
<path d="M1900 1100 c-12 -8 -11 -10 8 -10 17 0 22 -6 22 -24 0 -29 -18 -44 -26 -22 -7 17 -54 22 -54 6 0 -5 9 -10 21 -10 22 0 49 -22 49 -39 0 -6 5 -11 10 -11 9 0 15 45 10 80 -3 25 -23 40 -40 30z"/>
<path d="M2110 1078 c0 -18 5 -40 10 -48 8 -12 10 -9 10 13 0 16 4 26 10 22 6 -3 10 -1 10 4 0 6 -4 11 -10 11 -5 0 -10 7 -10 15 0 8 -4 15 -10 15 -5 0 -10 -15 -10 -32z"/>
<path d="M671 1087 c0 -10 -13 -22 -28 -28 -16 -5 -41 -16 -58 -24 l-30 -15 27 0 c14 0 29 6 32 13 5 10 7 10 12 0 3 -7 12 -13 20 -13 8 0 14 -10 14 -25 0 -14 5 -25 10 -25 6 0 10 15 10 34 0 19 6 37 13 39 9 4 9 8 1 14 -7 4 -14 17 -17 28 -4 17 -5 17 -6 2z"/>
<path d="M916 1083 c-12 -12 -6 -43 8 -43 8 0 16 -6 19 -12 2 -8 8 -9 13 -4 5 5 4 11 -3 13 -7 3 -13 13 -13 23 0 20 -13 33 -24 23z"/>
<path d="M2242 1075 c-11 -13 -8 -15 23 -15 24 0 35 4 35 15 0 19 -41 19 -58 0z"/>
<path d="M2930 1075 c0 -8 6 -15 14 -15 9 0 12 -8 8 -25 -3 -20 -1 -24 12 -19 12 5 16 0 16 -20 0 -14 5 -26 10 -26 16 0 12 38 -7 68 -33 51 -53 65 -53 37z"/>
<path d="M260 1062 c0 -10 7 -27 15 -39 8 -12 12 -28 9 -37 -3 -9 -1 -16 5 -16 6 0 11 16 11 36 0 21 -4 33 -10 29 -6 -4 -10 5 -10 19 0 14 -4 26 -10 26 -5 0 -10 -8 -10 -18z"/>
<path d="M2370 1042 c0 -30 2 -32 25 -26 19 5 25 2 25 -10 0 -9 7 -16 15 -16 8 0 15 5 15 10 0 12 -39 47 -45 40 -2 -3 -11 4 -19 15 -15 19 -15 19 -16 -13z"/>
<path d="M451 1038 c-1 -18 -6 -28 -16 -28 -9 0 -15 -10 -15 -26 0 -16 5 -24 13 -21 6 2 12 11 12 21 0 9 7 21 14 26 12 7 12 13 4 32 l-12 23 0 -27z"/>
<path d="M1086 1040 c-6 -16 -5 -25 3 -28 6 -2 11 -17 11 -34 0 -29 19 -58 39 -58 6 0 11 -11 11 -25 0 -18 5 -25 19 -25 11 0 23 -9 26 -20 6 -19 26 -29 24 -12 -4 24 2 72 9 68 4 -2 14 -1 22 5 10 6 0 9 -32 9 -46 0 -48 1 -48 28 0 15 -4 22 -8 16 -5 -9 -10 -8 -19 1 -10 11 -10 15 0 18 7 3 4 6 -6 6 -10 1 -16 5 -12 10 3 6 -1 13 -9 18 -7 4 -16 17 -18 28 -4 18 -5 18 -12 -5z"/>
<path d="M2460 1040 c0 -11 4 -20 9 -20 5 0 16 -3 25 -6 20 -8 21 12 2 32 -20 20 -36 17 -36 -6z"/>
<path d="M2561 1038 c0 -13 3 -17 6 -10 2 6 11 12 18 12 8 0 17 5 20 10 4 6 -5 10 -19 10 -21 0 -26 -5 -25 -22z"/>
<path d="M1799 1030 c-27 -28 -31 -40 -15 -40 9 0 16 6 16 14 0 8 7 16 15 18 8 2 11 8 7 14 -5 6 -12 4 -23 -6z"/>
<path d="M2237 1043 c-2 -5 -10 -31 -17 -60 -11 -42 -11 -55 -1 -67 7 -8 10 -20 6 -26 -3 -5 1 -10 9 -10 9 0 16 5 16 10 0 6 11 10 25 10 14 0 25 -4 25 -9 0 -5 14 -11 30 -13 20 -3 30 0 30 9 0 8 -12 13 -30 13 -16 0 -30 5 -30 10 0 6 16 10 35 10 26 0 35 4 35 16 0 12 -6 15 -22 10 -13 -3 -36 -6 -51 -6 -16 0 -26 -4 -22 -10 4 -6 -7 -10 -24 -10 -26 0 -31 4 -31 25 0 16 6 25 15 25 11 0 15 11 15 40 0 38 -4 48 -13 33z"/>
<path d="M2080 1001 c-11 -22 -24 -42 -30 -46 -13 -8 -13 -35 0 -35 6 0 10 7 10 16 0 8 5 12 10 9 6 -4 10 5 10 19 0 16 6 26 15 26 9 0 15 9 15 25 0 34 -6 31 -30 -14z"/>
<path d="M1878 988 c-3 -21 -8 -23 -50 -20 -56 3 -66 -15 -10 -20 32 -3 37 -6 34 -25 -2 -15 2 -23 11 -23 10 0 13 8 9 25 -3 18 0 25 12 25 11 0 16 9 16 30 0 35 -17 41 -22 8z"/>
<path d="M2675 1000 c3 -5 -1 -10 -9 -10 -23 0 -20 -8 13 -41 16 -16 39 -29 50 -29 12 0 21 -5 21 -12 0 -6 2 -9 5 -6 11 11 -7 36 -31 42 -22 6 -30 26 -25 59 0 4 -6 7 -15 7 -8 0 -12 -4 -9 -10z"/>
<path d="M128 943 c5 -83 9 -90 11 -20 0 37 -2 67 -7 67 -4 0 -6 -21 -4 -47z"/>
<path d="M570 977 c0 -8 -11 -28 -23 -44 -31 -37 -43 -83 -22 -83 11 0 15 10 15 35 0 31 3 35 25 35 22 0 24 3 18 33 -7 36 -13 48 -13 24z"/>
<path d="M1524 968 c-3 -12 -15 -30 -25 -42 -10 -11 -17 -22 -14 -24 3 -3 13 5 24 16 10 12 23 22 30 22 13 0 15 36 2 45 -5 3 -13 -5 -17 -17z"/>
<path d="M2470 980 c12 -8 10 -10 -10 -11 -14 -1 -28 -1 -32 0 -5 0 -7 -14 -7 -31 1 -22 3 -26 6 -12 3 16 9 20 24 17 13 -4 27 2 40 15 25 28 24 32 -8 32 -22 0 -25 -2 -13 -10z"/>
<path d="M2881 978 c1 -16 17 -56 18 -45 2 22 51 -46 53 -75 3 -32 2 -32 -34 -29 -29 2 -38 -1 -38 -13 0 -12 11 -16 38 -18 l37 -1 -44 -6 c-25 -3 -46 -12 -49 -18 -2 -7 1 -13 7 -13 6 0 11 5 11 10 0 6 28 10 63 11 44 0 56 3 42 9 -17 7 -17 9 -2 9 9 1 17 5 17 10 0 5 -8 12 -17 14 -17 4 -17 5 0 6 20 1 24 21 3 21 -9 0 -12 8 -8 25 3 18 0 25 -12 25 -9 0 -16 8 -16 20 0 11 -4 20 -10 20 -5 0 -10 7 -10 15 0 8 -7 15 -16 15 -8 0 -12 5 -9 10 3 6 -1 10 -9 10 -9 0 -16 -6 -15 -12z"/>
<path d="M470 956 c0 -8 -6 -16 -14 -18 -10 -2 -11 -9 -3 -28 8 -20 11 -22 14 -7 3 10 14 17 28 17 21 0 23 3 16 23 -10 25 -41 36 -41 13z"/>
<path d="M630 945 c0 -20 5 -25 25 -25 16 0 25 6 25 16 0 8 -4 13 -9 10 -5 -3 -11 1 -15 9 -9 24 -26 17 -26 -10z"/>
<path d="M1597 963 c-4 -6 0 -16 8 -23 8 -7 15 -19 15 -26 0 -8 5 -14 10 -14 6 0 10 -7 10 -15 0 -8 -7 -15 -17 -15 -9 0 -14 -3 -10 -6 12 -13 45 8 50 31 3 18 0 25 -12 25 -14 0 -14 2 -1 10 13 8 12 10 -4 10 -10 0 -24 7 -31 17 -7 10 -14 12 -18 6z"/>
<path d="M2530 955 c0 -11 7 -14 25 -9 19 5 25 2 25 -10 0 -12 10 -16 35 -16 31 0 35 -3 35 -25 0 -14 5 -25 10 -25 6 0 10 14 10 30 0 17 -4 30 -9 30 -5 0 -13 10 -17 22 -6 19 -7 19 -16 5 -11 -21 -28 -22 -28 -2 0 10 -11 15 -35 15 -25 0 -35 -4 -35 -15z"/>
<path d="M2550 910 c0 -5 -9 -10 -20 -10 -11 0 -20 -7 -20 -15 0 -8 -5 -15 -10 -15 -6 0 -13 7 -16 15 -8 19 -44 20 -44 1 0 -9 -9 -13 -25 -11 -16 1 -25 -3 -25 -11 0 -10 -15 -14 -51 -14 -31 0 -48 -4 -44 -10 4 -6 -13 -10 -44 -10 -39 0 -51 -4 -51 -15 0 -11 -11 -15 -36 -15 -21 0 -33 -4 -29 -10 4 -6 -18 -10 -59 -10 -63 0 -65 1 -69 28 -5 26 -5 26 -3 -3 1 -26 5 -30 40 -36 21 -3 42 -12 47 -20 6 -9 12 -10 17 -4 4 6 16 12 27 13 11 2 22 8 23 13 2 5 46 9 98 9 70 0 92 3 89 13 -7 19 11 41 30 33 15 -5 15 -7 1 -22 -22 -21 -20 -24 14 -24 27 0 30 2 24 25 -5 19 -2 25 11 25 9 0 13 5 10 10 -4 6 10 10 34 10 23 0 41 5 41 10 0 14 38 12 43 -2 2 -7 2 -28 -1 -45 -4 -26 -1 -33 12 -33 13 0 16 12 16 70 0 56 -3 70 -15 70 -8 0 -15 -4 -15 -10z"/>
<path d="M2071 883 c-1 -36 19 -44 45 -19 16 17 19 36 4 36 -5 0 -10 -7 -10 -15 0 -24 -28 -17 -33 8 -3 16 -5 13 -6 -10z"/>
<path d="M50 866 c0 -20 5 -36 10 -36 6 0 10 13 10 29 0 17 -4 33 -10 36 -6 4 -10 -8 -10 -29z"/>
<path d="M333 893 c-13 -2 -23 -9 -23 -14 0 -5 -5 -9 -11 -9 -38 0 -82 -106 -63 -154 11 -29 20 -17 23 32 1 26 6 49 12 50 5 2 9 10 9 18 0 8 7 14 16 14 8 0 12 5 9 10 -3 6 1 10 9 10 9 0 16 7 16 15 0 8 5 15 10 15 6 0 10 -11 10 -24 0 -34 16 -41 24 -11 4 14 11 25 16 25 6 0 10 7 10 15 0 15 -19 17 -67 8z"/>
<path d="M420 875 c0 -14 -4 -25 -10 -25 -5 0 -10 -11 -10 -25 0 -14 -4 -25 -10 -25 -5 0 -10 -13 -10 -30 0 -16 5 -30 11 -30 6 0 9 9 6 20 -4 16 0 20 21 20 22 1 24 2 11 10 -20 11 -14 60 7 60 8 0 14 10 14 25 0 16 -6 25 -15 25 -9 0 -15 -9 -15 -25z"/>
<path d="M1038 878 c-4 -20 -1 -28 8 -28 8 0 14 -9 14 -20 0 -11 5 -20 10 -20 6 0 10 -5 10 -11 0 -11 25 -39 35 -39 11 0 35 28 35 40 0 6 5 8 10 5 6 -3 10 1 10 9 0 9 -9 16 -20 16 -11 0 -20 -7 -20 -15 0 -9 -9 -15 -22 -15 -12 0 -19 3 -15 6 3 4 0 13 -8 20 -8 8 -12 21 -9 29 4 9 0 15 -9 15 -9 0 -17 8 -19 18 -3 12 -6 9 -10 -10z"/>
<path d="M1256 889 c3 -6 -2 -17 -12 -24 -18 -13 -17 -14 13 -15 17 0 38 -7 47 -15 20 -21 26 -19 26 10 0 14 -5 25 -11 25 -5 0 -7 -4 -4 -10 3 -5 -1 -10 -9 -10 -10 0 -16 9 -16 23 0 16 -6 23 -20 24 -12 1 -18 -3 -14 -8z"/>
<path d="M1434 875 c-4 -18 -13 -25 -30 -25 -13 0 -24 -4 -24 -10 0 -14 16 -12 50 5 21 11 27 20 23 35 -7 26 -11 25 -19 -5z"/>
<path d="M1520 885 c0 -9 9 -15 25 -15 16 0 25 6 25 15 0 9 -9 15 -25 15 -16 0 -25 -6 -25 -15z"/>
<path d="M2600 861 c0 -25 5 -41 15 -45 8 -3 15 -17 15 -31 0 -14 4 -25 8 -25 5 0 9 14 9 31 0 17 6 35 14 41 11 7 9 9 -8 5 -18 -4 -22 1 -28 29 -8 46 -25 43 -25 -5z"/>
<path d="M1500 867 c0 -10 -8 -17 -20 -17 -11 0 -20 -4 -20 -10 0 -5 9 -10 20 -10 11 0 20 -7 20 -15 0 -9 9 -15 25 -15 16 0 25 6 25 15 0 8 8 15 19 15 10 0 21 9 24 20 8 30 -8 33 -29 5 -10 -14 -29 -25 -41 -25 -25 0 -31 15 -10 23 10 4 10 7 0 18 -11 11 -13 10 -13 -4z"/>
<path d="M148 778 c5 -132 9 -145 10 -35 1 59 -1 107 -5 107 -5 0 -7 -33 -5 -72z"/>
<path d="M940 826 c0 -13 -6 -26 -12 -28 -9 -3 -8 -10 5 -22 10 -10 21 -15 25 -12 3 4 0 11 -7 15 -10 7 -10 13 -2 29 14 26 14 42 1 42 -5 0 -10 -11 -10 -24z"/>
<path d="M2696 828 c11 -37 30 -48 82 -48 36 0 52 4 56 16 3 8 10 12 16 9 5 -3 10 1 10 9 0 17 -9 20 -34 10 -9 -3 -13 -10 -11 -15 9 -13 -46 -23 -64 -12 -9 6 -15 20 -13 32 3 17 -2 21 -23 21 -23 0 -25 -3 -19 -22z"/>
<path d="M330 806 c0 -13 -4 -26 -10 -28 -5 -1 -10 -18 -12 -35 -1 -21 -8 -33 -16 -33 -12 0 -13 -18 -9 -102 8 -136 10 -139 16 -33 4 64 10 89 19 88 8 -2 12 10 12 38 0 24 4 38 10 34 6 -4 10 13 10 44 0 28 -4 51 -10 51 -5 0 -10 -11 -10 -24z"/>
<path d="M1410 816 c0 -8 -8 -17 -17 -19 -10 -2 -7 -3 6 -2 28 3 47 -12 53 -41 5 -31 23 -22 26 14 2 24 -1 32 -12 32 -9 0 -16 7 -16 15 0 8 -9 15 -20 15 -11 0 -20 -6 -20 -14z"/>
<path d="M1314 795 c-4 -8 -18 -15 -33 -15 -24 -1 -24 -2 -8 -14 21 -16 22 -36 2 -36 -8 0 -15 -4 -15 -10 0 -5 13 -10 29 -10 25 0 30 -5 34 -27 3 -24 4 -23 6 7 1 43 51 96 51 55 0 -10 9 -14 25 -13 30 3 34 23 5 25 -11 1 -31 13 -45 27 -30 30 -43 32 -51 11z m26 -26 c0 -13 -26 -40 -33 -33 -3 3 -3 14 0 25 6 20 33 27 33 8z"/>
<path d="M1640 798 c0 -14 -23 -35 -48 -42 -12 -4 -22 -12 -22 -17 0 -5 -12 -9 -26 -9 -14 0 -23 -4 -19 -10 3 -5 0 -10 -9 -10 -8 0 -17 6 -20 13 -5 10 -7 10 -12 0 -3 -7 -22 -13 -42 -14 -30 0 -33 -2 -17 -9 11 -5 37 -9 57 -9 24 -1 40 -7 47 -18 9 -17 10 -17 16 -1 4 9 4 22 0 28 -3 5 1 10 9 10 9 0 16 -4 16 -10 0 -5 6 -10 14 -10 9 0 12 7 9 20 -4 14 0 20 11 20 9 0 16 7 16 15 0 8 9 15 20 15 11 0 20 5 20 10 0 6 9 10 20 10 31 0 23 17 -10 22 -16 3 -30 0 -30 -4z"/>
<path d="M72 623 c2 -179 6 -158 10 60 2 64 0 117 -4 117 -5 0 -7 -80 -6 -177z"/>
<path d="M489 765 c-12 -20 -30 -40 -40 -46 -15 -7 -19 -21 -19 -58 0 -52 14 -71 62 -90 22 -8 26 -8 21 4 -3 8 -14 15 -24 15 -10 0 -19 5 -19 10 0 6 -7 10 -15 10 -11 0 -15 12 -15 50 0 38 4 50 15 50 10 0 15 -10 15 -31 0 -30 19 -59 39 -59 6 0 11 5 11 10 0 6 -7 10 -15 10 -12 0 -15 13 -15 56 0 54 14 84 39 84 6 0 11 5 11 10 0 23 -32 7 -51 -25z"/>
<path d="M2670 756 c0 -25 -4 -46 -10 -46 -5 0 -10 -16 -10 -35 0 -19 5 -35 10 -35 6 0 10 16 10 35 0 19 5 35 10 35 6 0 10 9 10 19 0 11 4 22 9 25 15 9 6 41 -12 44 -14 3 -17 -5 -17 -42z"/>
<path d="M2440 745 c0 -19 5 -35 11 -35 6 0 8 10 5 23 -3 12 -3 16 0 10 3 -7 12 -13 20 -13 9 0 12 -4 9 -10 -3 -5 1 -10 9 -10 10 0 16 -9 16 -25 0 -14 5 -25 10 -25 6 0 10 5 10 11 0 7 8 18 18 25 15 12 14 13 -10 14 -25 0 -28 4 -28 35 0 30 -3 35 -22 35 -19 0 -20 -2 -8 -10 13 -8 12 -10 -2 -10 -10 0 -18 5 -18 10 0 6 -4 10 -10 10 -5 0 -10 -16 -10 -35z"/>
<path d="M2571 771 c-10 -6 -12 -20 -8 -44 3 -20 1 -39 -6 -46 -8 -8 -6 -11 7 -11 9 0 15 4 12 9 -3 5 3 11 13 14 14 3 17 0 14 -14 -3 -11 0 -19 6 -19 6 0 11 11 11 25 0 14 -4 25 -10 25 -5 0 -10 16 -10 35 0 36 -5 41 -29 26z"/>
<path d="M1130 745 c0 -8 9 -15 20 -15 13 0 20 -7 20 -20 0 -15 7 -20 25 -20 14 0 25 5 25 10 0 6 6 10 14 10 8 0 17 7 20 16 9 23 7 34 -4 34 -5 0 -10 -7 -10 -15 0 -10 -11 -15 -35 -15 -24 0 -35 5 -35 15 0 8 -9 15 -20 15 -11 0 -20 -7 -20 -15z"/>
<path d="M2230 720 c0 -16 5 -30 10 -30 6 0 10 14 10 30 0 17 -4 30 -10 30 -5 0 -10 -13 -10 -30z"/>
<path d="M2121 715 c-1 -16 -5 -24 -8 -17 -2 6 -9 12 -15 12 -6 0 -8 -7 -4 -15 3 -8 2 -25 -3 -38 -4 -12 -2 -59 5 -107 7 -47 13 -93 14 -102 0 -25 -35 -23 -60 2 -11 11 -24 20 -30 20 -5 0 -10 8 -10 17 0 14 -3 13 -21 -5 -18 -20 -18 -24 -5 -37 8 -8 24 -15 35 -15 12 0 21 -6 21 -14 0 -9 10 -13 33 -11 17 2 42 -3 54 -11 14 -9 24 -10 28 -4 3 6 -1 10 -9 10 -13 0 -16 15 -16 88 0 60 -3 82 -10 72 -7 -11 -10 1 -10 42 0 31 5 58 11 60 6 2 9 20 6 43 -3 34 -4 35 -6 10z"/>
<path d="M2740 710 c0 -11 7 -20 15 -20 8 0 15 -5 15 -11 0 -7 10 -21 23 -32 15 -13 18 -21 10 -24 -7 -3 -13 -13 -13 -24 0 -10 -3 -19 -8 -19 -17 0 -42 42 -42 70 0 16 -4 32 -10 35 -6 4 -10 -8 -10 -28 0 -22 -6 -37 -16 -41 -20 -8 -9 -26 17 -26 10 0 19 -4 19 -10 0 -5 6 -10 14 -10 8 0 16 -6 18 -12 7 -19 38 16 38 41 0 12 6 21 15 21 8 0 15 -5 15 -11 0 -6 7 -17 15 -26 14 -14 18 -13 39 10 13 14 27 23 30 20 3 -4 6 1 6 10 0 13 9 17 35 17 19 0 35 5 35 11 0 5 -4 8 -9 5 -5 -3 -11 3 -14 14 -3 13 0 20 9 20 8 0 14 9 14 20 0 17 -7 20 -45 20 -25 0 -45 -4 -45 -8 0 -5 12 -8 28 -7 15 1 19 0 10 -2 -10 -2 -18 -11 -18 -19 0 -8 -4 -12 -10 -9 -5 3 -10 -1 -10 -9 0 -8 12 -16 28 -19 l27 -4 -27 -2 c-16 0 -28 -5 -28 -11 0 -5 -9 -14 -20 -20 -17 -9 -26 -4 -65 35 -25 26 -45 53 -45 61 0 8 -9 14 -20 14 -13 0 -20 -7 -20 -20z"/>
<path d="M2180 690 c0 -24 27 -37 43 -21 8 8 7 11 -6 11 -9 0 -17 7 -17 15 0 8 -4 15 -10 15 -5 0 -10 -9 -10 -20z"/>
<path d="M1130 675 c0 -8 5 -15 10 -15 6 0 10 -4 10 -10 0 -5 -16 -10 -35 -10 -23 0 -35 -5 -35 -14 0 -16 63 -12 68 4 2 6 19 10 38 10 19 0 34 5 34 10 0 6 -16 10 -35 10 -24 0 -35 5 -35 15 0 8 -4 15 -10 15 -5 0 -10 -7 -10 -15z"/>
<path d="M1220 679 c0 -5 5 -9 10 -9 6 0 10 -7 10 -15 0 -8 4 -15 9 -15 5 0 11 7 15 15 10 28 26 15 27 -22 l2 -38 6 40 c4 22 7 41 6 41 -2 7 -85 10 -85 3z"/>
<path d="M1830 670 c0 -5 -5 -9 -11 -7 -6 1 -14 -4 -16 -10 -3 -7 2 -13 11 -13 12 0 16 -10 16 -37 0 -28 3 -34 10 -23 7 11 10 1 10 -35 0 -27 3 -60 6 -72 5 -18 2 -23 -12 -23 -16 0 -16 -1 2 -19 10 -10 21 -14 22 -10 2 5 10 9 18 9 19 0 18 36 -1 44 -17 6 -21 46 -4 46 7 0 19 -9 28 -19 23 -27 54 -31 59 -7 2 10 -1 23 -7 29 -8 8 -11 6 -11 -6 0 -18 -25 -23 -35 -7 -3 6 -1 10 5 10 6 0 -5 15 -24 34 -24 22 -36 42 -36 60 0 16 -5 26 -15 26 -20 0 -19 17 3 29 16 10 16 10 0 11 -10 0 -18 -4 -18 -10z"/>
<path d="M1428 653 c21 -4 21 -5 5 -21 -12 -12 -18 -13 -21 -4 -3 11 -32 18 -32 7 0 -3 9 -14 20 -25 28 -28 25 -40 -10 -40 -16 0 -30 5 -30 10 0 14 -47 12 -54 -2 -5 -10 -7 -10 -12 0 -3 6 -12 12 -20 12 -8 0 -14 5 -14 10 0 6 -17 9 -37 9 -31 -2 -33 -3 -10 -6 36 -6 36 -33 -1 -33 l-28 0 -2 -132 c-2 -124 -11 -196 -34 -259 l-9 -27 -37 34 c-25 23 -40 30 -48 23 -8 -6 -13 -3 -17 11 -3 13 0 20 8 20 10 0 12 10 8 35 -4 26 -2 36 10 41 14 5 13 8 -3 24 -10 10 -26 23 -36 29 -11 6 -13 11 -6 11 6 0 12 7 12 15 0 8 5 15 10 15 6 0 10 9 10 20 0 11 -3 20 -6 20 -10 0 -34 -28 -34 -39 0 -22 -33 -7 -43 19 -3 8 -6 0 -6 -17 -1 -24 4 -33 15 -33 8 0 12 -4 9 -10 -4 -6 5 -10 19 -10 21 0 26 -5 26 -25 0 -14 -4 -25 -10 -25 -5 0 -10 -23 -10 -51 0 -31 4 -48 10 -44 6 4 10 -5 10 -19 0 -23 4 -26 35 -26 31 0 35 -3 35 -26 0 -24 -3 -26 -35 -22 -24 3 -35 0 -35 -9 0 -7 11 -13 25 -13 19 0 25 -5 25 -22 0 -19 2 -20 10 -8 6 10 10 11 10 3 0 -7 4 -13 9 -13 5 0 7 8 5 18 -3 9 1 26 9 36 14 19 15 19 26 -3 14 -25 11 -77 -4 -74 -6 1 -11 -7 -11 -18 0 -12 7 -19 18 -19 10 0 18 7 18 15 0 8 6 15 13 15 8 0 12 16 12 45 0 29 -4 45 -12 45 -7 0 -13 11 -13 25 0 16 6 25 16 25 12 0 14 8 8 45 -5 38 -4 45 10 45 14 0 16 17 16 130 0 80 4 130 10 130 6 0 10 11 10 25 0 16 6 25 15 25 9 0 15 -9 15 -25 0 -19 5 -25 23 -25 18 0 19 -2 7 -10 -13 -8 -12 -10 3 -10 10 0 15 -4 12 -10 -4 -6 5 -10 19 -10 14 0 26 -5 26 -11 0 -11 25 -39 35 -39 4 0 14 -7 23 -16 14 -15 17 -15 29 1 15 21 9 35 -17 35 -10 0 -20 7 -24 15 -3 8 -14 15 -25 15 -11 0 -23 5 -26 10 -3 6 1 10 10 10 9 0 15 6 12 13 -2 6 -12 11 -21 9 -18 -3 -46 20 -46 37 0 16 19 13 37 -4 8 -8 19 -13 24 -10 5 4 9 -1 9 -9 0 -10 9 -16 25 -16 23 0 25 3 25 51 l0 51 35 -4 c31 -4 35 -1 35 19 0 21 -4 23 -47 22 -27 -1 -38 -4 -25 -6z"/>
<path d="M1690 654 c0 -10 28 -34 39 -34 6 0 11 -7 11 -15 0 -8 -5 -15 -11 -15 -17 0 -39 -27 -39 -48 0 -11 -6 -22 -12 -25 -7 -2 -10 -8 -5 -12 9 -11 36 24 37 48 0 9 7 17 15 17 8 0 14 -3 14 -7 -1 -5 -1 -16 0 -25 1 -22 21 -24 21 -3 0 8 5 15 10 15 6 0 10 -11 10 -25 0 -14 5 -25 10 -25 6 0 10 16 10 35 0 28 -4 35 -20 35 -16 0 -20 7 -20 35 0 31 -3 35 -25 35 -14 0 -25 5 -25 10 0 6 -4 10 -10 10 -5 0 -10 -3 -10 -6z"/>
<path d="M2250 615 c0 -34 4 -45 16 -45 8 0 12 -4 9 -10 -3 -5 -1 -10 4 -10 6 0 11 5 11 10 0 6 7 10 15 10 8 0 15 -7 15 -15 0 -8 -4 -15 -10 -15 -5 0 -10 -9 -10 -20 0 -24 6 -25 26 -6 16 17 20 111 4 101 -6 -4 -10 5 -10 19 0 14 -5 26 -11 26 -8 0 -10 -12 -6 -35 3 -19 2 -37 -3 -40 -11 -7 -30 27 -30 54 0 12 -4 21 -10 21 -5 0 -10 -20 -10 -45z"/>
<path d="M1570 630 c0 -5 9 -10 20 -10 10 0 23 -8 29 -17 5 -10 13 -14 18 -9 4 5 2 11 -4 13 -7 3 -13 11 -13 19 0 8 -10 14 -25 14 -14 0 -25 -4 -25 -10z"/>
<path d="M2498 605 c-7 -9 -19 -22 -25 -30 -7 -7 -13 -19 -13 -25 0 -6 -4 -8 -10 -5 -5 3 -10 -1 -10 -9 0 -9 -7 -16 -15 -16 -16 0 -18 -12 -9 -47 9 -33 44 -31 44 2 0 14 5 25 10 25 6 0 10 11 10 25 0 16 6 25 15 25 9 0 15 -9 15 -25 0 -14 5 -25 11 -25 5 0 7 5 4 10 -3 6 1 10 9 10 9 0 16 7 16 15 0 8 7 15 15 15 8 0 15 5 15 10 0 6 -11 10 -25 10 -20 0 -25 5 -25 25 0 28 -13 32 -32 10z"/>
<path d="M960 590 c0 -16 7 -20 35 -20 39 0 42 4 21 26 -22 21 -56 18 -56 -6z"/>
<path d="M1545 579 c4 -6 13 -8 20 -5 8 3 11 -2 8 -15 -6 -20 4 -24 26 -10 12 8 12 12 -2 25 -17 18 -62 22 -52 5z"/>
<path d="M2840 561 c0 -13 -7 -21 -16 -21 -11 0 -15 -6 -11 -20 3 -13 0 -20 -9 -20 -8 0 -14 -7 -14 -15 0 -8 4 -15 9 -15 15 0 42 31 36 41 -4 5 1 9 9 9 18 0 22 45 6 55 -5 3 -10 -3 -10 -14z"/>
<path d="M330 536 c0 -19 5 -38 10 -41 6 -4 10 10 10 34 0 23 -4 41 -10 41 -5 0 -10 -15 -10 -34z"/>
<path d="M1500 555 c0 -8 -7 -15 -16 -15 -8 0 -12 -4 -9 -10 3 -5 -1 -10 -10 -10 -9 0 -13 -4 -10 -10 8 -13 65 -13 65 -1 0 5 -6 11 -12 14 -10 4 -10 7 0 18 15 16 16 29 2 29 -5 0 -10 -7 -10 -15z"/>
<path d="M2670 554 c0 -11 -6 -15 -20 -11 -20 5 -21 3 -24 -45 0 -12 -7 -23 -13 -25 -22 -8 -14 -23 12 -23 14 0 24 -4 23 -9 -2 -5 2 -11 7 -12 6 -2 11 9 13 25 2 18 0 26 -7 21 -7 -4 -11 5 -11 24 0 41 16 40 25 -1 6 -29 8 -30 15 -13 4 11 6 23 3 28 -2 4 3 7 11 7 12 0 16 -10 16 -36 0 -21 4 -33 10 -29 6 3 10 24 10 46 0 21 -4 39 -10 39 -5 0 -10 7 -10 15 0 9 -9 15 -25 15 -16 0 -25 -6 -25 -16z"/>
<path d="M393 525 c-15 -17 -17 -45 -3 -45 14 0 12 -47 -2 -54 -10 -5 -10 -7 0 -12 6 -3 12 -17 12 -30 0 -14 6 -24 14 -24 8 0 17 -6 19 -12 3 -7 6 -3 6 10 1 12 -4 22 -10 22 -7 0 -10 16 -8 44 3 27 -1 48 -9 56 -8 7 -11 22 -8 36 7 28 6 29 -11 9z"/>
<path d="M1620 529 c0 -6 -8 -9 -19 -6 -11 2 -25 -3 -35 -14 -18 -22 -21 -39 -5 -39 5 0 7 -4 4 -10 -3 -5 1 -10 9 -10 9 0 16 7 16 15 0 8 7 15 16 15 10 0 14 5 10 15 -3 9 1 18 9 21 17 7 20 24 5 24 -5 0 -10 -5 -10 -11z"/>
<path d="M2205 530 c3 -5 -1 -10 -9 -10 -9 0 -16 -7 -16 -16 0 -8 5 -12 10 -9 6 3 10 1 10 -4 0 -19 18 -12 25 9 5 16 12 19 28 14 19 -6 20 -5 5 10 -18 17 -63 23 -53 6z"/>
<path d="M920 478 c0 -24 -3 -60 -6 -80 -6 -32 -4 -38 11 -38 15 0 16 9 12 70 l-4 70 29 0 c15 0 28 -4 28 -10 0 -5 10 -9 23 -9 16 1 18 2 5 6 -10 2 -18 11 -18 19 0 10 -12 14 -40 14 l-40 0 0 -42z"/>
<path d="M1082 497 c-23 -25 -29 -47 -12 -47 6 0 10 6 10 13 0 7 9 19 20 27 11 8 20 18 20 22 0 15 -16 8 -38 -15z"/>
<path d="M1710 485 c0 -33 -2 -35 -35 -35 -30 0 -35 -3 -35 -22 1 -21 2 -22 14 -5 18 23 36 22 36 -3 0 -11 -6 -20 -14 -20 -9 0 -13 -7 -11 -20 3 -16 -2 -20 -21 -20 -15 0 -24 -6 -24 -15 0 -9 -9 -15 -24 -15 -13 0 -27 -6 -29 -12 -4 -10 -7 -10 -15 0 -5 7 -19 14 -30 15 -31 2 -28 27 3 27 14 0 25 5 25 10 0 6 9 10 20 10 11 0 20 5 20 10 0 6 7 10 15 10 8 0 15 7 15 15 0 8 -7 15 -15 15 -8 0 -15 -5 -15 -11 0 -5 -4 -7 -10 -4 -5 3 -10 1 -10 -4 0 -6 -9 -11 -20 -11 -11 0 -20 -4 -20 -10 0 -5 -18 -10 -40 -10 -39 0 -40 -1 -40 -35 l0 -35 51 0 c47 0 51 -2 46 -21 -3 -13 0 -22 10 -26 12 -5 12 -7 1 -14 -9 -6 -4 -9 14 -9 22 0 27 -4 25 -21 -1 -12 4 -24 11 -26 22 -8 13 39 -13 62 -21 20 -22 25 -10 35 8 7 13 16 10 20 -5 9 36 22 44 14 3 -3 -1 -9 -9 -14 -8 -5 -11 -12 -8 -15 4 -4 17 2 29 14 13 12 19 21 15 21 -4 0 -1 7 8 15 8 8 19 15 25 15 6 0 10 3 10 8 -3 19 2 33 11 27 6 -3 10 3 10 14 0 12 7 21 15 21 8 0 15 -4 15 -10 0 -5 5 -10 10 -10 7 0 7 6 0 19 -12 23 1 35 29 26 13 -4 20 0 24 17 8 28 -1 38 -14 15 -6 -9 -19 -17 -29 -17 -11 0 -20 -4 -20 -10 0 -5 -7 -10 -15 -10 -8 0 -15 5 -15 10 0 6 7 13 15 16 22 9 18 24 -6 24 -11 0 -17 5 -14 10 3 6 1 10 -4 10 -6 0 -11 -16 -11 -35z"/>
<path d="M2980 485 c0 -19 -5 -35 -11 -35 -14 0 -39 25 -39 39 0 6 -4 11 -10 11 -5 0 -10 -4 -10 -9 0 -5 -3 -16 -6 -25 -4 -11 -1 -16 10 -16 11 0 16 -9 16 -27 1 -25 2 -26 14 -10 19 25 36 21 36 -8 0 -16 -6 -25 -15 -25 -9 0 -15 -9 -15 -25 0 -27 -17 -34 -26 -10 -7 17 -44 21 -44 5 0 -5 7 -10 15 -10 8 0 15 -7 15 -15 0 -23 -27 -18 -33 6 -6 21 -6 21 -30 -2 -26 -25 -26 -39 0 -39 9 0 13 6 10 14 -4 10 -1 13 9 9 7 -3 14 -11 14 -17 0 -12 -44 -56 -56 -56 -10 0 -34 -28 -34 -39 0 -6 7 -11 15 -11 8 0 15 -6 16 -12 0 -7 6 -2 12 12 6 14 19 32 29 41 10 9 18 21 18 28 0 22 40 51 70 51 17 0 30 -4 30 -10 0 -5 5 -10 10 -10 6 0 10 9 10 20 0 11 -4 20 -10 20 -15 0 -12 38 3 43 9 3 9 11 0 37 -7 19 -9 36 -5 39 11 9 13 71 2 71 -6 0 -10 -16 -10 -35z"/>
<path d="M1130 476 c0 -16 -6 -26 -15 -26 -9 0 -15 -9 -15 -25 0 -14 -4 -25 -10 -25 -5 0 -10 -4 -10 -10 0 -27 30 -5 49 35 24 50 25 61 11 70 -6 4 -10 -5 -10 -19z"/>
<path d="M2250 485 c0 -8 -4 -15 -10 -15 -5 0 -10 -4 -10 -10 0 -5 16 -10 35 -10 24 0 35 5 35 15 0 8 -5 15 -11 15 -5 0 -7 5 -4 10 3 6 -3 10 -14 10 -12 0 -21 -7 -21 -15z"/>
<path d="M2840 475 c0 -20 5 -25 26 -25 16 0 24 5 21 13 -2 6 -10 11 -16 10 -6 -2 -11 4 -11 12 0 8 -4 15 -10 15 -5 0 -10 -11 -10 -25z"/>
<path d="M1269 468 c-1 -13 -1 -26 0 -30 0 -5 -6 -8 -14 -8 -11 0 -14 -13 -12 -60 1 -43 5 -60 15 -60 7 0 10 5 7 10 -3 6 1 10 9 10 10 0 16 9 16 25 0 16 -6 25 -15 25 -24 0 -17 17 10 24 14 4 25 11 25 17 0 6 -4 7 -10 4 -6 -4 -10 6 -10 24 0 35 -19 53 -21 19z"/>
<path d="M289 475 c-4 -3 0 -20 8 -36 11 -23 14 -55 12 -126 -3 -71 -1 -97 9 -100 9 -4 12 24 12 116 0 67 4 121 9 121 5 0 11 -6 14 -12 2 -8 8 -9 13 -4 5 5 4 11 -3 13 -7 3 -13 12 -13 21 -1 15 -2 15 -14 0 -16 -22 -34 -23 -38 -2 -2 9 -6 13 -9 9z"/>
<path d="M2370 467 c0 -9 -7 -17 -15 -17 -8 0 -15 5 -15 10 0 6 -4 10 -10 10 -18 0 -11 -18 9 -25 62 -19 80 -12 50 19 -17 17 -19 18 -19 3z"/>
<path d="M2770 466 c0 -9 -5 -16 -10 -16 -6 0 -22 -11 -36 -25 -14 -14 -32 -25 -40 -25 -8 0 -12 -4 -9 -10 9 -14 42 -12 48 3 4 10 6 10 6 0 1 -7 8 -13 17 -13 11 0 15 6 11 19 -3 14 0 17 14 14 16 -4 19 0 19 25 0 17 -4 34 -10 37 -5 3 -10 -1 -10 -9z"/>
<path d="M2490 450 c0 -13 7 -20 19 -20 10 0 22 -7 25 -16 3 -8 10 -13 15 -9 11 6 3 34 -15 53 -19 19 -44 15 -44 -8z"/>
<path d="M1518 453 c-26 -7 -22 -23 5 -23 14 0 24 6 24 15 0 8 -3 14 -6 14 -3 -1 -14 -3 -23 -6z"/>
<path d="M2600 421 c0 -12 -4 -21 -10 -21 -5 0 -10 -9 -10 -20 0 -11 5 -20 10 -20 6 0 10 -17 10 -37 0 -21 5 -45 10 -53 8 -13 10 -12 10 3 0 11 8 17 24 17 18 0 25 6 28 23 2 16 9 21 26 19 15 -2 22 2 22 12 0 11 -10 16 -31 16 -17 0 -28 4 -24 10 3 6 1 10 -4 10 -6 0 -11 -4 -11 -10 0 -12 -47 -13 -54 -1 -3 5 1 11 9 15 17 6 20 42 5 51 -5 3 -10 -3 -10 -14z"/>
<path d="M492 373 l1 -58 6 45 c7 53 21 33 21 -31 0 -38 -13 -52 -23 -26 -3 6 -6 0 -6 -15 -1 -22 3 -26 16 -21 12 5 15 2 10 -10 -4 -11 -1 -17 8 -17 10 0 15 -11 15 -35 0 -19 5 -35 10 -35 6 0 9 10 7 23 -2 12 -2 16 0 9 8 -21 23 -13 23 13 0 16 6 25 15 25 9 0 15 9 15 25 0 14 -6 25 -13 25 -7 0 -14 14 -15 32 -1 17 -11 39 -22 48 -11 10 -20 21 -20 24 0 11 -27 36 -39 36 -7 0 -10 -22 -9 -57z m71 -40 c19 -89 19 -93 6 -93 -23 0 -40 38 -37 80 2 46 23 54 31 13z"/>
<path d="M2860 415 c0 -8 -6 -15 -14 -15 -9 0 -12 -7 -9 -20 6 -24 10 -25 29 -6 16 17 19 56 4 56 -5 0 -10 -7 -10 -15z"/>
<path d="M2443 393 c-3 -7 -16 -13 -29 -13 -13 0 -24 -4 -24 -10 0 -5 -7 -10 -15 -10 -8 0 -15 5 -15 10 0 6 -25 10 -55 10 -51 0 -55 -2 -55 -24 0 -23 2 -23 80 -22 58 1 80 -2 80 -11 0 -7 11 -13 25 -13 14 0 25 -4 25 -10 0 -15 19 -12 36 4 20 20 18 26 -11 26 -16 0 -25 6 -25 15 0 11 12 15 50 15 28 0 50 5 50 10 0 6 -6 10 -14 10 -8 0 -16 5 -18 10 -5 16 -79 19 -85 3z"/>
<path d="M1833 384 c-3 -8 -1 -25 5 -37 10 -20 11 -18 11 16 1 39 -5 48 -16 21z"/>
<path d="M1870 390 c0 -5 7 -10 15 -10 9 0 15 -9 15 -25 0 -14 5 -25 10 -25 6 0 10 6 10 14 0 8 13 16 29 18 23 3 28 1 23 -11 -8 -21 -28 -41 -41 -41 -6 0 -11 -7 -11 -15 0 -8 -4 -15 -10 -15 -5 0 -10 7 -10 15 0 9 -9 15 -24 15 -19 0 -23 -4 -19 -20 3 -11 14 -20 24 -20 11 0 19 -5 19 -11 0 -7 11 -1 25 13 18 18 32 24 55 20 18 -3 30 0 30 7 0 6 -9 11 -20 11 -11 0 -20 5 -20 10 0 6 5 10 10 10 15 0 12 39 -4 56 -16 16 -40 19 -31 4 4 -6 -5 -10 -19 -10 -14 0 -26 5 -26 10 0 6 -7 10 -15 10 -8 0 -15 -4 -15 -10z"/>
<path d="M2090 376 c0 -9 8 -16 20 -16 11 0 20 -7 20 -15 0 -8 -9 -15 -20 -15 -13 0 -20 -7 -20 -19 0 -10 -7 -21 -15 -25 -8 -3 -15 -15 -15 -26 0 -17 6 -20 46 -20 44 0 74 -16 74 -39 0 -6 5 -11 10 -11 14 0 12 27 -2 33 -10 4 -9 8 2 16 8 5 11 13 7 18 -5 4 -12 1 -16 -6 -12 -18 -31 -5 -31 22 -1 21 -1 21 -15 3 -13 -18 -41 -14 -29 5 3 5 10 7 15 4 5 -4 9 3 9 14 0 14 5 19 15 15 11 -5 15 1 15 20 0 23 4 26 35 26 19 0 35 5 35 10 0 13 -77 13 -85 0 -4 -6 -16 -4 -31 6 -22 15 -24 15 -24 0z"/>
<path d="M1723 353 c-27 -30 -29 -43 -8 -43 8 0 15 7 15 15 0 8 7 15 15 15 9 0 15 -9 15 -25 0 -14 5 -25 11 -25 6 0 8 9 3 23 -4 12 -7 31 -8 41 -1 29 -18 28 -43 -1z"/>
<path d="M831 341 c-1 -15 -6 -21 -14 -18 -8 3 -20 1 -28 -4 -10 -6 -2 -9 24 -9 40 0 48 -13 18 -29 -37 -20 -35 -53 7 -102 23 -27 28 -24 30 21 2 30 -1 40 -13 40 -8 0 -15 -7 -15 -15 0 -8 -4 -15 -10 -15 -5 0 -10 14 -10 30 0 28 3 30 35 30 19 0 35 5 35 10 0 6 -6 10 -13 10 -13 0 -29 24 -40 60 -3 9 -6 5 -6 -9z"/>
<path d="M2768 353 c-16 -2 -28 -9 -28 -14 0 -5 -10 -14 -22 -19 -13 -5 -17 -9 -10 -9 7 -1 10 -5 7 -11 -3 -5 1 -10 9 -10 9 0 16 5 16 10 0 6 16 10 35 10 24 0 35 5 35 15 0 8 6 15 13 15 8 0 7 4 -3 10 -8 5 -17 9 -20 8 -3 0 -17 -3 -32 -5z"/>
<path d="M380 320 c0 -5 -7 -10 -15 -10 -8 0 -15 -4 -15 -10 0 -14 5 -13 42 10 29 18 30 20 11 20 -13 0 -23 -4 -23 -10z"/>
<path d="M1340 309 c0 -19 2 -19 21 -5 14 9 33 13 50 9 18 -3 29 -1 29 6 0 7 -20 11 -50 11 -44 0 -50 -3 -50 -21z"/>
<path d="M2317 268 c4 -33 2 -48 -6 -48 -6 0 -11 9 -11 20 0 23 -16 26 -36 6 -17 -18 -18 -26 -1 -26 34 -1 81 -80 47 -80 -5 0 -10 -4 -10 -10 0 -6 3 -9 8 -9 24 4 19 -6 -22 -46 -33 -32 -55 -45 -75 -45 -16 0 -31 -7 -35 -15 -7 -18 15 -20 32 -3 10 10 17 10 32 0 26 -16 30 -15 30 3 0 8 7 15 15 15 9 0 15 9 15 22 0 12 3 19 6 15 9 -9 34 19 34 37 0 12 10 16 35 16 25 0 35 4 35 16 0 12 -8 15 -32 12 l-33 -3 -3 65 c-1 35 -6 67 -11 70 -4 3 -11 12 -14 20 -3 8 -3 -6 0 -32z"/>
<path d="M2018 265 c-5 -72 -4 -85 4 -85 4 0 7 -3 6 -7 0 -5 3 -17 7 -27 6 -13 4 -21 -3 -24 -7 -2 -12 -8 -12 -13 0 -4 7 -6 15 -3 20 8 45 -13 45 -37 0 -11 7 -19 15 -19 11 0 15 12 15 50 0 28 -4 50 -10 50 -5 0 -10 -7 -10 -15 0 -8 -7 -15 -15 -15 -8 0 -15 7 -15 15 0 8 -4 15 -10 15 -6 0 -10 30 -10 70 0 40 -4 70 -10 70 -5 0 -11 -11 -12 -25z"/>
<path d="M2790 279 c0 -14 -25 -39 -39 -39 -6 0 -11 -7 -11 -15 0 -8 3 -15 6 -15 12 0 73 67 67 74 -10 10 -23 7 -23 -5z"/>
<path d="M1480 230 c0 -22 5 -40 10 -40 6 0 10 -7 10 -16 0 -23 76 -94 100 -94 11 0 20 -5 20 -11 0 -14 26 -39 40 -39 7 0 10 -7 6 -15 -3 -8 -1 -15 4 -15 6 0 10 9 10 20 0 23 -56 90 -75 90 -14 0 -28 27 -17 33 4 3 22 4 40 3 19 -1 32 4 32 12 0 8 -18 12 -57 12 -41 0 -54 3 -43 10 13 8 13 10 -2 10 -10 0 -18 10 -21 28 l-4 27 -2 -27 c0 -18 -7 -28 -16 -28 -11 0 -15 11 -15 40 0 22 -4 40 -10 40 -5 0 -10 -18 -10 -40z"/>
<path d="M1948 264 c-8 -8 3 -44 13 -44 5 0 9 11 9 25 0 24 -10 32 -22 19z"/>
<path d="M1640 240 c0 -11 7 -20 15 -20 8 0 15 -4 15 -10 0 -5 4 -10 10 -10 5 0 7 7 3 16 -5 14 -2 16 20 10 16 -4 27 -2 27 4 0 5 -16 10 -35 10 -19 0 -35 5 -35 10 0 6 -4 10 -10 10 -5 0 -10 -9 -10 -20z"/>
<path d="M2551 248 c3 -24 -1 -38 -11 -38 -5 0 -10 7 -10 15 0 8 -4 15 -10 15 -5 0 -10 -7 -10 -15 0 -8 -5 -15 -10 -15 -6 0 -13 7 -16 15 -12 31 -24 13 -24 -34 0 -56 17 -79 22 -29 5 50 25 46 30 -7 2 -35 0 -45 -12 -46 -10 0 -11 -2 -2 -6 6 -2 12 -16 12 -29 0 -14 4 -22 10 -19 6 3 10 15 10 26 0 11 7 19 18 19 16 1 16 1 0 11 -19 11 -25 59 -8 59 6 0 10 7 10 15 0 9 7 18 15 21 20 8 20 54 0 54 -9 0 -15 -6 -14 -12z"/>
<path d="M704 205 c-4 -8 -16 -15 -28 -16 -19 0 -19 -1 -2 -8 18 -7 18 -8 0 -26 -23 -22 -27 -55 -8 -55 8 0 14 7 14 16 0 8 5 12 10 9 6 -4 10 5 10 19 0 27 25 37 33 14 2 -8 8 -9 13 -4 5 5 4 11 -3 13 -7 3 -13 11 -13 19 0 9 5 12 10 9 6 -3 10 1 10 9 0 21 -39 21 -46 1z"/>
<path d="M2720 205 c0 -9 5 -13 10 -10 6 4 10 -5 10 -19 0 -23 -4 -26 -35 -26 -19 0 -35 -5 -35 -11 0 -17 -27 -39 -49 -39 -24 0 -28 15 -6 24 24 9 17 26 -10 26 -20 0 -25 -5 -25 -25 0 -14 5 -25 10 -25 6 0 10 -7 10 -16 0 -11 -6 -14 -20 -9 -14 5 -20 2 -20 -9 0 -9 -6 -16 -14 -16 -7 0 -16 -11 -18 -25 -4 -19 -1 -25 13 -25 11 0 19 6 19 13 0 17 42 57 59 57 8 0 29 9 47 21 19 11 34 16 34 10 0 -6 5 -11 10 -11 6 0 10 5 10 10 0 6 11 22 25 36 14 14 25 31 25 38 0 8 -11 21 -25 30 -23 15 -25 15 -25 1z"/>
<path d="M1880 180 c0 -5 9 -10 20 -10 11 0 20 -4 20 -10 0 -5 11 -10 25 -10 14 0 25 5 25 10 0 6 -11 10 -25 10 -14 0 -25 5 -25 10 0 6 -9 10 -20 10 -11 0 -20 -4 -20 -10z"/>
<path d="M2370 182 c0 -16 52 -34 64 -22 7 7 2 10 -17 10 -15 0 -27 5 -27 10 0 6 -4 10 -10 10 -5 0 -10 -4 -10 -8z"/>
<path d="M2600 181 c0 -5 -10 -11 -22 -13 -13 -2 3 -4 34 -5 34 -1 64 4 75 13 17 12 17 13 1 14 -10 0 -18 -4 -18 -10 0 -5 -11 -10 -25 -10 -14 0 -25 5 -25 10 0 6 -4 10 -10 10 -5 0 -10 -4 -10 -9z"/>
<path d="M2190 145 c-7 -14 -17 -25 -22 -25 -4 0 -8 -9 -8 -20 0 -11 5 -20 10 -20 6 0 10 -9 10 -21 0 -11 4 -18 9 -14 6 3 6 17 1 35 -8 28 3 44 13 18 7 -19 14 -7 20 35 7 44 -12 51 -33 12z"/>
<path d="M540 134 c0 -16 15 -17 45 -4 14 6 15 9 5 10 -8 1 -23 3 -32 5 -10 2 -18 -3 -18 -11z"/>
<path d="M840 135 c0 -8 7 -15 15 -15 17 0 21 -35 5 -45 -6 -3 -13 1 -16 9 -8 20 -24 21 -24 2 0 -8 -6 -17 -12 -19 -9 -4 -8 -6 2 -6 8 -1 21 -14 28 -31 14 -31 52 -42 52 -15 0 9 -9 15 -25 15 -16 0 -25 6 -25 15 0 11 7 14 25 9 22 -5 25 -3 25 20 0 14 5 26 10 26 6 0 10 7 10 16 0 8 -4 12 -10 9 -5 -3 -10 0 -10 7 0 8 -11 15 -25 16 -16 1 -25 -3 -25 -13z"/>
<path d="M990 136 c0 -10 -9 -16 -25 -16 -17 0 -25 -6 -25 -16 0 -9 -7 -22 -16 -29 -12 -8 -15 -20 -9 -43 8 -39 20 -35 23 8 2 32 22 60 40 60 6 0 13 6 15 13 4 9 8 8 17 -3 9 -12 10 -11 8 9 -3 27 -28 42 -28 17z"/>
<path d="M1340 125 c0 -16 -6 -25 -16 -25 -8 0 -13 -4 -9 -9 3 -6 -3 -14 -12 -20 -10 -5 -15 -12 -12 -16 4 -3 19 5 35 18 21 18 35 22 49 16 32 -12 44 -10 68 14 12 12 25 23 30 23 20 4 20 6 2 14 -34 15 -45 11 -45 -15 0 -19 -5 -25 -21 -25 -22 0 -49 22 -49 39 0 6 -4 11 -10 11 -5 0 -10 -11 -10 -25z"/>
<path d="M2840 135 c0 -8 -7 -15 -15 -15 -8 0 -15 -4 -15 -10 0 -5 -9 -10 -20 -10 -11 0 -20 -4 -20 -9 0 -6 13 -5 33 1 17 5 42 11 55 11 21 1 33 17 12 17 -5 0 -10 7 -10 15 0 8 -4 15 -10 15 -5 0 -10 -7 -10 -15z"/>
<path d="M730 106 c0 -19 -7 -26 -30 -31 -17 -4 -28 -11 -24 -16 3 -5 1 -9 -4 -9 -6 0 -13 7 -16 16 -10 25 -26 6 -26 -32 0 -24 4 -34 16 -34 8 0 13 4 9 9 -6 11 26 31 49 31 9 0 16 -9 16 -20 0 -11 7 -20 15 -20 12 0 15 14 15 65 0 37 -4 65 -10 65 -5 0 -10 -11 -10 -24z"/>
<path d="M2435 121 c-3 -6 3 -14 12 -20 10 -5 14 -13 9 -18 -5 -4 -11 -2 -13 5 -6 17 -53 15 -53 -2 0 -8 -6 -17 -12 -19 -7 -3 -3 -6 10 -6 12 -1 22 4 22 9 0 6 7 10 15 10 9 0 15 -9 15 -25 0 -14 5 -25 10 -25 6 0 10 10 10 23 0 18 2 19 10 7 8 -12 10 -9 10 13 0 15 -4 27 -10 27 -5 0 -10 7 -10 15 0 17 -16 20 -25 6z"/>
<path d="M1240 85 c0 -8 0 -18 -1 -22 -2 -21 19 -10 23 12 4 17 1 25 -8 25 -8 0 -14 -7 -14 -15z"/>
<path d="M1030 55 c0 -20 -5 -25 -25 -25 -16 0 -25 -6 -25 -15 0 -9 9 -15 25 -15 16 0 25 6 25 15 0 8 7 15 15 15 8 0 15 -7 15 -15 0 -8 9 -15 20 -15 11 0 20 5 20 11 0 14 -25 39 -39 39 -6 0 -11 7 -11 15 0 8 -4 15 -10 15 -5 0 -10 -11 -10 -25z"/>
<path d="M467 40 c-19 -22 -15 -40 9 -40 9 0 14 11 14 30 0 36 -1 36 -23 10z"/>
<path d="M2336 35 c-3 -8 -10 -14 -15 -13 -5 2 -11 -1 -12 -7 -2 -5 4 -11 14 -13 10 -2 17 3 17 12 0 9 7 16 15 16 8 0 15 5 15 10 0 16 -27 12 -34 -5z"/>
</g>
</svg>